<svg width="24" height="25" viewBox="0 0 24 25" fill="none" xmlns="http://www.w3.org/2000/svg">
<path d="M12 19.9207C9.5 19.9207 7.29 18.6407 6 16.7207C6.03 14.7207 10 13.6207 12 13.6207C14 13.6207 17.97 14.7207 18 16.7207C16.71 18.6407 14.5 19.9207 12 19.9207ZM12 5.7207C12.7956 5.7207 13.5587 6.03677 14.1213 6.59938C14.6839 7.16199 15 7.92505 15 8.7207C15 9.51635 14.6839 10.2794 14.1213 10.842C13.5587 11.4046 12.7956 11.7207 12 11.7207C11.2044 11.7207 10.4413 11.4046 9.87868 10.842C9.31607 10.2794 9 9.51635 9 8.7207C9 7.92505 9.31607 7.16199 9.87868 6.59938C10.4413 6.03677 11.2044 5.7207 12 5.7207ZM12 2.7207C10.6868 2.7207 9.38642 2.97936 8.17317 3.48191C6.95991 3.98445 5.85752 4.72105 4.92893 5.64964C3.05357 7.525 2 10.0685 2 12.7207C2 15.3729 3.05357 17.9164 4.92893 19.7918C5.85752 20.7204 6.95991 21.457 8.17317 21.9595C9.38642 22.462 10.6868 22.7207 12 22.7207C14.6522 22.7207 17.1957 21.6671 19.0711 19.7918C20.9464 17.9164 22 15.3729 22 12.7207C22 7.1907 17.5 2.7207 12 2.7207Z" fill="#C2CFE0"/>
</svg>
