<svg width="20" height="21" viewBox="0 0 20 21" fill="none" xmlns="http://www.w3.org/2000/svg">
<path d="M18 18.7209C18 19.8309 17.11 20.7209 16 20.7209C14.89 20.7209 14 19.8209 14 18.7209C14 17.6109 14.89 16.7209 16 16.7209C17.11 16.7209 18 17.6209 18 18.7209ZM6 16.7209C4.89 16.7209 4 17.6109 4 18.7209C4 19.8209 4.89 20.7209 6 20.7209C7.11 20.7209 8 19.8309 8 18.7209C8 17.6109 7.11 16.7209 6 16.7209ZM6.2 13.3509L6.17 13.4709C6.17 13.6109 6.28 13.7209 6.42 13.7209H18V15.7209H6C4.89 15.7209 4 14.8209 4 13.7209C4 13.3709 4.09 13.0409 4.24 12.7609L5.6 10.3109L2 2.72093H0V0.720932H3.27L4.21 2.72093H19C19.55 2.72093 20 3.17093 20 3.72093C20 3.89093 19.95 4.06093 19.88 4.22093L16.3 10.6909C15.96 11.3009 15.3 11.7209 14.55 11.7209H7.1L6.2 13.3509ZM7.5 9.72093H9V7.72093H6.56L7.5 9.72093ZM10 7.72093V9.72093H13V7.72093H10ZM13 6.72093V4.72093H10V6.72093H13ZM16.11 7.72093H14V9.72093H15L16.11 7.72093ZM17.78 4.72093H14V6.72093H16.67L17.78 4.72093ZM5.14 4.72093L6.08 6.72093H9V4.72093H5.14Z" fill="#C2CFE0"/>
</svg>
