<?xml version="1.0" encoding="UTF-8"?>
<svg id="Layer_1" xmlns="http://www.w3.org/2000/svg" xmlns:xlink="http://www.w3.org/1999/xlink" version="1.1" viewBox="0 0 108.2 86">
  <!-- Generator: Adobe Illustrator 29.3.1, SVG Export Plug-In . SVG Version: 2.1.0 Build 151)  -->
  <defs>
    <style>
      .st0 {
        fill: #231f20;
      }
    </style>
  </defs>
  <path class="st0" d="M70.8,35.3c-1.3,0-2.3-1-2.3-2.3s1-2.3,2.3-2.3h30c1.3,0,2.3,1,2.3,2.3v47.5c0,1.3-1,2.3-2.3,2.3H29.9c-1.3,0-2.3-1-2.3-2.3v-26.9c0-1.3,1-2.3,2.3-2.3s2.3,1,2.3,2.3v13.2l15.6-9c.8-.5,1.8-.5,2.6,0l12.1,8.7,22.2-18.3h0c.9-.7,2.1-.7,3,0l10.9,9.6v-22.6h-27.7ZM29.1,12.1l17,11.5c1.1.7,1.3,2.1.6,3.2-.2.3-.4.5-.7.6l-17.1,11.5c-1.1.7-2.5.4-3.2-.6-.3-.4-.4-.8-.4-1.3h0V14c0-1.3,1-2.3,2.3-2.3s1,.2,1.4.5h0ZM40.8,25.5l-10.7-7.2v14.5l10.7-7.2h0ZM7.4,3.8h54.7c1.3,0,2.3,1,2.3,2.3v38.8c0,1.3-1,2.3-2.3,2.3H7.4c-1.3,0-2.3-1-2.3-2.3V6.1c0-1.3,1-2.3,2.3-2.3ZM59.9,8.4H9.7v34.2h50.1V8.4ZM32.2,72v6.1h66.3v-14.2l-12.4-11-22.1,18.2c-.9.7-2.1.7-2.9,0l-12.2-8.8-16.7,9.6h0Z"/>
</svg>