<?xml version="1.0" encoding="UTF-8"?>
<svg id="Layer_1" xmlns="http://www.w3.org/2000/svg" xmlns:xlink="http://www.w3.org/1999/xlink" version="1.1" viewBox="0 0 90.8 100">
  <!-- Generator: Adobe Illustrator 29.3.1, SVG Export Plug-In . SVG Version: 2.1.0 Build 151)  -->
  <defs>
    <style>
      .st0 {
        fill: #231f20;
      }
    </style>
  </defs>
  <path class="st0" d="M36.2,40.8h-17.8c-1.3,0-2.4,1.1-2.4,2.4s1.1,2.4,2.4,2.4h17.8c1.3,0,2.4-1.1,2.4-2.4s-1.1-2.4-2.4-2.4Z"/>
  <path class="st0" d="M50.7,56.4H18.4c-1.3,0-2.4,1.1-2.4,2.4s1.1,2.4,2.4,2.4h32.3c1.3,0,2.4-1.1,2.4-2.4s-1.1-2.4-2.4-2.4Z"/>
  <path class="st0" d="M54.1,72H18.4c-1.3,0-2.4,1.1-2.4,2.4s1.1,2.4,2.4,2.4h35.8c1.3,0,2.4-1.1,2.4-2.4s-1.1-2.4-2.4-2.4Z"/>
  <path class="st0" d="M66.3,67.6v23.3H5.7V27.9h19.2c1.3,0,2.4-1.1,2.4-2.4V8.2h39.1v5.4c0,1.3,1.1,2.4,2.4,2.4h0c1.3,0,2.4-1.1,2.4-2.4v-7.8c0-1.3-1.1-2.4-2.4-2.4H24.8c-.3,0-.6,0-.9.2,0,0,0,0-.1,0,0,0-.1,0-.2.1h-.2c-.1.2-.2.2-.2.2L1.8,23.7h0c-.2.2-.3.5-.4.7,0,0,0,.1-.1.2-.1.3-.2.6-.2,1v67.9c0,1.3,1.1,2.4,2.4,2.4h65.4c1.3,0,2.4-1.1,2.4-2.4v-25.7c0-1.3-1.1-2.4-2.4-2.4h0c-1.3,0-2.4,1.1-2.4,2.4ZM22.5,11.2v11.9h-13l13-11.9Z"/>
  <g>
    <path class="st0" d="M89.2,43.4l-3.2-2.8c0-.8,0-1.5,0-2.3,0,0,0-.1,0-.2v-.2s3.1-2.9,3.1-2.9c.5-.5.7-1.2.5-1.8-.5-1.6-1.1-3.1-2-4.6-.3-.6-1-.9-1.7-.9l-4.2.3c-.3-.3-.6-.6-.9-.9-.3-.3-.6-.6-1-.9v-4.2c.2-.7-.2-1.3-.8-1.6-1.5-.8-3.1-1.4-4.7-1.8-.7-.2-1.4,0-1.8.6l-2.8,3.2c-.9,0-1.7,0-2.6,0l-2.9-3.1c-.5-.5-1.2-.7-1.8-.5-1.6.5-3.1,1.1-4.6,2-.6.3-.9,1-.9,1.7l.3,4.2c-.3.3-.7.6-.9.9-.3.3-.6.6-.9,1h-4.2c-.7-.2-1.3.2-1.7.8-.8,1.5-1.4,3.1-1.8,4.7-.2.7,0,1.4.6,1.8l3.2,2.8c0,0,0,.1,0,.2h0c0,.8,0,1.6,0,2.4l-3.1,2.9c-.5.5-.7,1.2-.5,1.8.5,1.6,1.1,3.1,2,4.6,0,0,0,.1,0,.1.2.2.4.4.6.5.3.1.6.2.9.2l4.2-.3c.1.1.3.3.4.4.2.2.3.3.5.5.3.3.6.6,1,.9v4.2c-.2.4,0,.7.1,1,0,0,0,.1.1.2v.4s.4,0,.4,0c0,0,0,0,.1,0,1.5.8,3,1.4,4.6,1.8.2,0,.3,0,.5,0,.5,0,1-.2,1.3-.6l2.8-3.2s0,0,0,0c.8,0,1.7,0,2.4,0,0,0,0,0,0,0l2.9,3.1c.5.5,1.2.7,1.8.5,1.6-.5,3.1-1.1,4.6-2,0,0,0,0,0,0l.3-.2c.2-.2.4-.4.5-.7.1-.2.1-.5.1-.8l-.3-4.2c.3-.3.6-.6.9-.9.2-.2.3-.3.5-.5.1-.2.3-.3.4-.5h4.2c.3.2.6.1.9,0,0,0,.1,0,.2,0h.4v-.4c0,0,.1-.2.2-.3.8-1.5,1.4-3,1.8-4.7.2-.7,0-1.4-.6-1.8ZM76.6,51.9l.3,4c-.6.3-1.2.6-1.8.8l-2.7-2.9c-.4-.4-1-.6-1.6-.6-.3,0-.5,0-.8,0-.6,0-1.3,0-1.9,0-.3,0-.5,0-.8,0-.6,0-1.2.1-1.6.6l-2.6,3c-.6-.2-1.2-.4-1.8-.7v-4c.2-.6-.1-1.2-.6-1.5-.5-.3-.9-.7-1.3-1.1-.1-.1-.2-.2-.4-.4-.3-.3-.6-.6-.8-.9-.4-.5-.9-.7-1.5-.7l-4,.3c-.3-.6-.6-1.2-.8-1.8l2.9-2.7c.4-.4.6-1,.5-1.6-.1-.9-.2-1.8-.1-2.7,0-.3,0-.5,0-.8,0-.6-.2-1.2-.6-1.6l-3-2.6c.2-.6.4-1.2.7-1.8h4c.6.2,1.2-.1,1.5-.6.4-.5.7-.9,1.1-1.4.4-.4.8-.8,1.2-1.1.6-.3.9-1,.8-1.6l-.3-4c.6-.3,1.2-.6,1.8-.8l2.7,2.9c.4.4,1,.6,1.6.6,1.2-.2,2.4-.2,3.5,0,.6,0,1.2-.2,1.6-.6l2.6-3c.6.2,1.2.4,1.8.7v4c-.2.6.1,1.2.6,1.5h0c.4.4.9.7,1.2,1.1.4.4.8.9,1.2,1.3.4.5.9.7,1.5.7l4-.3c.3.6.6,1.2.8,1.8l-2.9,2.7c-.4.4-.6,1-.5,1.6,0,.3,0,.5,0,.8h0c0,1,0,1.9,0,2.8,0,.6.2,1.2.6,1.6l3,2.6c-.2.6-.4,1.2-.7,1.8h-4c-.6-.2-1.2,0-1.6.6-.2.3-.5.6-.8,1-.1.1-.2.3-.4.4-.4.5-.9.9-1.3,1.2-.5.4-.7.9-.7,1.5Z"/>
    <path class="st0" d="M68.6,29.9c-2.6,0-5,1.1-6.8,2.9-3.7,3.8-3.6,10,.2,13.7,1.8,1.8,4.2,2.7,6.7,2.7s5.1-1,6.9-2.9c1.8-1.9,2.8-4.3,2.7-6.9,0-2.6-1.1-5-2.9-6.8-1.8-1.8-4.3-2.8-6.9-2.7ZM74.8,39.5c0,1.6-.6,3.1-1.7,4.3-2.3,2.4-6.2,2.5-8.6.1-2.4-2.3-2.5-6.2-.1-8.6,1.2-1.2,2.7-1.8,4.4-1.8s3.1.6,4.2,1.7c1.2,1.1,1.8,2.6,1.8,4.3Z"/>
  </g>
</svg>