<?xml version="1.0" encoding="utf-8"?>
<!-- Generator: Adobe Illustrator 28.2.0, SVG Export Plug-In . SVG Version: 6.00 Build 0)  -->
<svg version="1.1" id="Layer_1" xmlns="http://www.w3.org/2000/svg" xmlns:xlink="http://www.w3.org/1999/xlink" x="0px" y="0px"
	 viewBox="0 0 118.49 84.92" style="enable-background:new 0 0 118.49 84.92;" xml:space="preserve">
<style type="text/css">
	.st0{fill-rule:evenodd;clip-rule:evenodd;fill:#231F20;}
	.st1{fill:#231F20;}
	.st2{fill:none;}
</style>
<g>
	<path class="st1" d="M91.41,55.11l-3.94-12.04c6.45-4.25,5.96-9.69,5.04-12.66c-2.37-7.6-8.17-7.31-11.26-6.88l-4.12-13.52
		c-1-3.15-4.38-4.9-7.52-3.9c-1.46,0.46-2.67,1.45-3.42,2.79l-1.24,2.22c-5.1,9.14-13.08,16.59-22.53,21.06
		c-1.22-0.71-2.71-0.9-4.09-0.46l-9.17,2.9c-3.74,1.18-6.8,3.75-8.6,7.23c-1.81,3.48-2.15,7.46-0.96,11.2
		c2.06,6.5,8.45,10.74,15.12,10.21l9.52,13.81c0.97,1.41,2.52,2.2,4.15,2.2c0.51,0,1.03-0.08,1.55-0.24l7.42-2.35
		c1.22-0.39,2.21-1.22,2.8-2.36c0.59-1.13,0.7-2.43,0.31-3.64c-0.15-0.46-0.36-0.9-0.64-1.3l-8.76-12.54
		c10.06-1.58,20.56-0.04,29.76,4.38l2.29,1.1c1.38,0.66,2.94,0.78,4.4,0.31C90.66,61.65,92.41,58.28,91.41,55.11z M83.06,29.3
		c1.76-0.09,3.06,0.35,3.85,2.81c0.8,2.49-0.03,3.96-1.33,5.07L83.06,29.3z M48.71,73.28l-7.95-11.53l5.39-1.71l8.03,11.5
		L48.71,73.28z M85.6,57.04l-2.25-1.08c-7.63-3.67-16.07-5.56-24.53-5.56c-3.03,0-6.06,0.24-9.05,0.73l-4.4-13.88
		c10.35-5.02,19.07-13.23,24.67-23.28l1.1-1.97l14.05,43.48C85.53,56.31,85.6,56.79,85.6,57.04z M44.67,54.38l-8.42,2.67
		c-2.25,0.71-4.64,0.51-6.74-0.58c-2.09-1.09-3.64-2.92-4.35-5.17c-1.47-4.64,1.11-9.62,5.75-11.09l8.42-2.67L44.67,54.38z"/>
	<polygon class="st1" points="88.22,3 88.22,11.44 106.54,11.44 106.54,29.77 114.99,29.77 114.99,3 	"/>
	<polygon class="st1" points="11.95,11.44 30.27,11.44 30.27,3 3.5,3 3.5,29.77 11.95,29.77 	"/>
	<polygon class="st1" points="106.54,73.48 88.22,73.48 88.22,81.93 114.99,81.93 114.99,55.16 106.54,55.16 	"/>
	<polygon class="st1" points="11.95,55.16 3.5,55.16 3.5,81.93 30.27,81.93 30.27,73.48 11.95,73.48 	"/>
</g>
</svg>
