<?xml version="1.0" encoding="utf-8"?>
<!-- Generator: Adobe Illustrator 28.2.0, SVG Export Plug-In . SVG Version: 6.00 Build 0)  -->
<svg version="1.1" id="Layer_1" xmlns="http://www.w3.org/2000/svg" xmlns:xlink="http://www.w3.org/1999/xlink" x="0px" y="0px"
	 viewBox="0 0 100 100" style="enable-background:new 0 0 100 100;" xml:space="preserve">
<style type="text/css">
	.st0{fill-rule:evenodd;clip-rule:evenodd;fill:#231F20;}
	.st1{fill:#231F20;}
</style>
<g>
	<path class="st0" d="M49.69,81.76c0.49-0.52,1.01-1.04,1.64-1.69c3.88-3.94,8.71-8.85,9.81-15.06c0.88-5.01-0.36-9.96-3.4-13.6
		c-3.05-3.63-7.4-5.55-12.49-5.37c-6.76,0.26-11.04,3.45-13.57,6.39c-2.67-3.18-6.93-6.58-12.95-6.58h0c-0.27,0-0.55,0.01-0.83,0.02
		c-5.03,0.27-10.02,3.27-13.02,7.84c-2.82,4.3-3.49,9.3-1.84,13.72c1.92,5.17,6.55,9.63,10.63,13.57l0.21,0.2
		c0.87,0.84,1.7,1.64,2.43,2.39c2.83,2.9,5.71,5.63,8.49,8.27l0.27,0.25c1.47,1.4,2.95,2.8,4.43,4.23l1.7,1.64
		c0.17,0.16,0.38,0.24,0.6,0.24c0.2,0,0.4-0.07,0.56-0.21l1.8-1.53C39.38,92.04,44.61,87.08,49.69,81.76z M56.88,64.26
		c-0.86,4.89-4.99,9.09-8.64,12.8c-0.58,0.59-1.14,1.16-1.68,1.73c-4.77,5-9.7,9.68-14.64,13.93c-1.4-1.35-2.79-2.67-4.18-3.99
		c-2.76-2.61-5.61-5.32-8.36-8.13c-0.83-0.85-1.76-1.75-2.73-2.69c-3.75-3.62-7.99-7.72-9.57-11.97c-1.16-3.12-0.65-6.71,1.4-9.84
		c2.26-3.44,5.95-5.7,9.63-5.9c0.2-0.01,0.41-0.02,0.61-0.02c8,0,12.18,8.86,12.23,8.95c0.14,0.31,0.47,0.47,0.79,0.5
		c0.34,0,0.64-0.21,0.78-0.52c1.08-2.52,4.5-8.41,12.91-8.74c3.64-0.19,6.83,1.23,9.01,3.83C56.65,56.84,57.55,60.51,56.88,64.26z"
		/>
	<path class="st0" d="M72.69,32.12c-0.74-0.44-1.53-0.81-2.41-1.01c-2.85-0.66-5.7,0.19-7.71,2.02l-8.46-7
		c0.54-1.12,0.87-2.36,0.87-3.69c0-4.72-3.84-8.56-8.56-8.56s-8.56,3.84-8.56,8.56c0,1.45,0.39,2.79,1.03,3.98
		c-0.01,0.01-0.02,0.01-0.02,0.02L28.8,40.42c-0.74,1.03-0.51,2.46,0.52,3.2c0.41,0.29,0.87,0.43,1.34,0.43
		c0.71,0,1.41-0.33,1.86-0.95l9.61-13.31c1.27,0.75,2.74,1.21,4.32,1.21c1.73,0,3.34-0.52,4.69-1.41l9.04,7.48
		c-0.04,0.15-0.11,0.28-0.15,0.43c-1.07,4.6,1.8,9.21,6.39,10.28c0.65,0.15,1.3,0.22,1.94,0.22c3.89,0,7.41-2.67,8.33-6.62
		c0.49-2.09,0.13-4.17-0.81-5.93l9.11-11.02c0.94,0.36,1.95,0.58,3.01,0.58c4.72,0,8.56-3.84,8.56-8.56S92.71,7.9,87.99,7.9
		c-4.72,0-8.56,3.84-8.56,8.56c0,1.99,0.71,3.8,1.86,5.26L72.69,32.12z M46.44,26.43c-2.2,0-3.98-1.79-3.98-3.98
		s1.79-3.98,3.98-3.98c2.19,0,3.98,1.79,3.98,3.98S48.63,26.43,46.44,26.43z M72.22,40.35c-0.5,2.14-2.65,3.47-4.78,2.97
		c-2.14-0.5-3.47-2.64-2.97-4.78c0.43-1.84,2.07-3.08,3.88-3.08c0.3,0,0.6,0.03,0.9,0.11C71.39,36.07,72.72,38.21,72.22,40.35z
		 M87.99,12.47c2.2,0,3.98,1.79,3.98,3.98s-1.79,3.98-3.98,3.98c-2.19,0-3.98-1.79-3.98-3.98S85.8,12.47,87.99,12.47z"/>
	<path class="st0" d="M91.13,27.65c-1.14,0.55-1.62,1.92-1.07,3.05c2.91,6.04,4.39,12.54,4.39,19.3c0,24.54-19.96,44.5-44.5,44.5
		c-2.18,0-4.38-0.16-6.52-0.47c-1.24-0.2-2.41,0.68-2.6,1.93c-0.18,1.25,0.68,2.41,1.93,2.6c2.36,0.35,4.78,0.52,7.18,0.52
		c27.06,0,49.08-22.02,49.08-49.08c0-7.46-1.63-14.62-4.84-21.29C93.64,27.57,92.26,27.1,91.13,27.65z"/>
	<path class="st0" d="M3.26,49.21c1.2,0,2.2-0.93,2.28-2.14C7.06,23.76,26.56,5.5,49.95,5.5c8.15,0,16.11,2.22,23.04,6.42
		c1.08,0.65,2.49,0.31,3.14-0.77c0.66-1.08,0.31-2.49-0.77-3.14c-7.64-4.64-16.43-7.09-25.42-7.09c-25.79,0-47.3,20.14-48.97,45.85
		c-0.08,1.26,0.87,2.35,2.14,2.43C3.16,49.21,3.21,49.21,3.26,49.21z"/>
</g>
</svg>
