<?xml version="1.0" encoding="utf-8"?>
<!-- Generator: Adobe Illustrator 28.2.0, SVG Export Plug-In . SVG Version: 6.00 Build 0)  -->
<svg version="1.1" id="Layer_1" xmlns="http://www.w3.org/2000/svg" xmlns:xlink="http://www.w3.org/1999/xlink" x="0px" y="0px"
	 viewBox="0 0 114.2 100" style="enable-background:new 0 0 114.2 100;" xml:space="preserve">
<style type="text/css">
	.st0{fill-rule:evenodd;clip-rule:evenodd;fill:#231F20;}
	.st1{fill:#231F20;}
</style>
<g>
	<path class="st0" d="M93.54,88.08c2.09-1.87,4.3-3.7,6.43-5.48c1.19-0.99,2.39-1.99,3.59-3.01l5.43-4.58
		c2.19-1.72,3.55-3.94,4.05-6.62c0.48-2.54,0.03-4.91-1.26-6.68c-1.4-1.71-3.5-2.84-5.89-3.16l-2.01,0l0.38-0.81
		c1.9-4.12,3-8.97,3.17-14.03c0.32-10.28-3.39-20.08-10.45-27.61c-7.08-7.53-16.66-11.86-27-12.18h-0.84c-0.1,0-0.21,0-0.31,0
		c-20.69,0-37.99,16.74-38.65,37.45c-0.16,3.7,0.29,7.63,1.3,11.4c0.16,0.18,0.23,0.32,0.23,0.63v0.43l-0.42,0.12
		c-0.94,0.27-2.32,0.74-3.6,1.47c-2.01,1.01-3.87,2.07-5.84,3.2c-0.7,0.4-1.41,0.81-2.14,1.22c-2.28,1.23-4.76,2.65-6.95,3.9
		c-1.2,0.69-2.35,1.37-3.51,2.05c-1.14,0.67-2.27,1.35-3.45,2.02l-4.82,2.95l0.99,2.26c0.08,0.16,0.13,0.34,0.18,0.51
		c0.02,0.07,0.05,0.17,0.06,0.19c4.17,8.13,9.72,15.32,16.58,21.5c0.59,0.59,1.3,0.87,2.16,0.87c0.47,0,1.05,0,1.61-0.28
		c4.37-1.92,7.79-2.78,11.11-2.78h44.79C84.81,93.03,89.73,91.42,93.54,88.08z M34.98,41.49c0.25-9.06,4.01-17.48,10.59-23.72
		c6.54-6.21,15.08-9.49,23.93-9.23c18.6,0.69,33.31,16.4,32.8,35.03c-0.17,6.04-1.86,11.67-5.01,16.74
		c-0.33,0.5-0.42,0.73-0.42,1.06v0.27l-0.21,0.17c-0.82,0.66-1.49,1.32-2.33,2.16c-0.87,0.78-1.71,1.58-2.55,2.38
		c-0.85,0.81-1.71,1.62-2.56,2.38c-2.19,1.86-4.44,3.77-6.36,4.98l-0.69-0.91c1.58-1.42,2.53-3.63,2.7-6.23
		c0.32-4.11-2.31-7.25-6.85-8.23l-2.91-0.48l1.79-0.77c1.22-0.53,2.13-1,2.87-1.75c1.98-1.81,2.89-3.89,2.89-6.55
		c0-2.77-0.8-4.97-2.38-6.55c-1.57-1.73-4.25-3.06-8.22-4.09l-0.43-0.11v-8.98l0.71,0.18c1.52,0.38,2.92,0.94,4.38,1.75
		c0.65,0.32,1.05,0.44,1.59,0.44c0.87,0,1.57-0.28,2.14-0.85c0.61-0.61,0.85-1.16,0.85-1.97c0-1.1-0.53-1.96-1.58-2.56
		c-2.13-1.31-4.56-2.14-7.25-2.48l-0.5-0.06v-1.18c0-0.49-0.25-1.04-0.68-1.46c-0.87-0.87-2.06-0.87-2.92,0
		c-0.43,0.43-0.68,0.97-0.68,1.46v1.19l-0.51,0.05c-3.13,0.33-5.58,1.34-7.48,3.08c-1.84,1.84-2.7,3.92-2.7,6.53
		c0,2.7,0.83,4.84,2.55,6.55c1.84,1.67,4.53,2.96,8.22,3.92l0.43,0.11v9.31l-0.7-0.16c-2.54-0.59-4.77-1.56-6.81-2.97
		c-0.53-0.4-1.07-0.58-1.71-0.58c-0.87,0-1.57,0.28-2.14,0.85c-0.57,0.57-0.85,1.27-0.85,2.14c0,1.2,0.45,2.01,1.41,2.56l-0.54,1.01
		l-0.26-0.13c-1.96-0.32-3.96-0.49-5.9-0.65c-4.45-0.51-8.73-0.84-13.48-1.2l-0.41-0.03l-0.1-0.4c-0.08-0.33-0.17-0.62-0.25-0.91
		c-0.09-0.3-0.17-0.61-0.26-0.95C35.23,48.04,34.82,44.62,34.98,41.49z M72.45,52.94l-0.65,0.09v-8.61l0.77,0.29
		c1.54,0.58,2.55,1.12,3.09,1.66c0.63,0.63,1.01,1.63,1.01,2.61C76.67,51.12,75.13,52.56,72.45,52.94z M68.19,28.81v8.44l-0.77-0.29
		c-1.35-0.51-2.31-1.05-2.92-1.66c-0.5-0.66-1.01-1.49-1.01-2.61c0-2.13,1.36-3.41,4.05-3.79L68.19,28.81z M33.51,88.24
		c-4.74,0.17-8.73,1.53-12,2.84l-0.33,0.13l-0.26-0.23c-5.51-4.84-10.17-10.77-13.87-17.63l-0.26-0.48l1.32-0.79
		c1.18-0.68,2.32-1.35,3.45-2.02c1.16-0.68,2.31-1.37,3.51-2.05c1.19-0.68,2.34-1.32,3.48-1.96c1.14-0.63,2.29-1.27,3.47-1.95
		c2.6-1.56,5.46-3.17,7.98-4.58c1.42-0.89,3.08-1.26,4.74-1.09c1.76,0.11,3.51,0.25,5.25,0.38c3.39,0.26,6.9,0.53,10.49,0.64
		c5.61,0.51,11.07,1.02,16.51,1.7c3.84,0.33,7.41,0.84,10.9,1.54c1.58,0.39,3.17,1.47,3,3.33c-0.19,2.83-1.97,4.59-4.64,4.59
		c-1.75,0-3.35-0.15-5.05-0.3l-1.81-0.21c-1.27-0.17-2.49-0.3-3.72-0.42c-1.24-0.13-2.47-0.26-3.75-0.43l-4.07-0.51l-1.12,0
		l-1.08-0.13l-1.26,1.82l-0.15,0.73c-0.31,2.64,0.13,4.34,3.31,5.1c3.12,0.86,6.84,1.71,10.49,2.37c0.32,0.1,0.57,0.14,0.84,0.18
		c0.27,0.04,0.56,0.08,0.89,0.17l0.61,0.09c4.22,0.63,8.21,1.22,10.86,0.75c3.64-0.66,7.4-3.79,11.6-7.5c1.83-1.5,3.7-3.19,5.4-4.89
		c0.45-0.37,0.82-0.74,1.18-1.1c0.4-0.4,0.8-0.8,1.24-1.15c1.43-1.43,2.91-2,4.83-1.82c0,0,0,0,0.01,0c0.8,0,1.99,0.43,2.6,1.24
		c0.78,1.3,0.53,2.65,0.44,3.03c-0.18,1.51-0.98,2.8-2.42,3.88l-5.41,4.4c-1.7,1.45-3.41,2.86-5.12,4.27
		c-1.68,1.39-3.37,2.78-5.05,4.21c-3.21,2.68-6.94,3.87-12.08,3.87H33.51z"/>
</g>
</svg>
