<?xml version="1.0" encoding="utf-8"?>
<!-- Generator: Adobe Illustrator 28.2.0, SVG Export Plug-In . SVG Version: 6.00 Build 0)  -->
<svg version="1.1" id="Layer_1" xmlns="http://www.w3.org/2000/svg" xmlns:xlink="http://www.w3.org/1999/xlink" x="0px" y="0px"
	 viewBox="0 0 118.49 84.92" style="enable-background:new 0 0 118.49 84.92;" xml:space="preserve">
<style type="text/css">
	.st0{fill-rule:evenodd;clip-rule:evenodd;fill:#231F20;}
	.st1{fill:#231F20;}
	.st2{fill:none;}
</style>
<g>
	<polygon class="st1" points="114.99,29.77 114.99,3 88.22,3 88.22,11.44 106.54,11.44 106.54,29.77 	"/>
	<polygon class="st1" points="30.27,3 3.5,3 3.5,29.77 11.95,29.77 11.95,11.44 30.27,11.44 	"/>
	<polygon class="st1" points="106.54,55.16 106.54,73.48 88.22,73.48 88.22,81.93 114.99,81.93 114.99,55.16 	"/>
	<polygon class="st1" points="3.5,55.16 3.5,81.93 30.27,81.93 30.27,73.48 11.95,73.48 11.95,55.16 	"/>
	<path class="st1" d="M94.04,34.56c-3.35-3.98-6.77-8.16-6.77-8.16c-3.94-4.47-8.85-10.02-13.72-10.14c-3.05,0-6.44,1.53-9.43,2.87
		c-1.95,0.88-3.97,1.79-5.03,1.79c0,0-0.01,0-0.01,0c-1.06,0-3.08-0.93-5.04-1.82c-2.86-1.31-6.11-2.8-8.98-2.84H45
		c-4.61,0.12-8.71,4.76-12,8.49c-0.59,0.67-1.16,1.31-1.69,1.89c-1.97,2.12-6.43,6.26-8.64,8.29l-8.45,8.33c0,0,2.24,2.21,5.16,5.21
		l-0.01,0.04c0,0,0.18,0.17,0.46,0.43c0.93,0.96,2.92,2.74,2.92,2.74c1.92,1.82,4.14,3.96,5.18,5.13c1.32,1.47,2.68,2.98,4.12,4.47
		c5.65,5.88,13.85,12.62,27.22,12.62c13.08,0,21.08-6.24,27.18-12.34c1.21-1.21,7.21-8.44,8.32-9.61c4.4-4.62,7.7-8.7,7.7-8.7
		S97.39,38.54,94.04,34.56z M84.82,54.18c-0.93,0.97-1.87,1.94-2.82,2.89c-6.48,6.48-12.54,10.5-22.71,10.5
		c-10.28,0-16.5-4.27-22.67-10.69c-1.2-1.25-2.37-2.54-3.54-3.82c-1.21-1.34-2.46-2.71-3.74-4.04c3.22-0.11,5.91-0.59,8.57-1.52
		c1.75,0.54,4.05,1.7,6.48,2.92l1.35,0.68c3.66,1.83,7.96,3.78,12.59,3.78c4.63,0,8.93-1.95,12.59-3.78l1.3-0.66
		c2.63-1.32,5.12-2.58,6.91-3.05c3.51,1.04,7.04,1.62,10.7,1.76C88.1,50.77,86.44,52.49,84.82,54.18z M46.06,44.14
		c0.74-0.32,1.45-0.59,1.87-0.64c0.53,0.03,2.51,0.47,5.14,1.3c0.65,0.16,1.31,0.38,1.97,0.6c1.38,0.46,2.81,0.94,4.25,0.95
		c1.73,0,2.99-0.61,4.21-1.21c0.35-0.17,0.7-0.34,1.07-0.5c1.71-0.73,3.05-1.11,4.07-1.14c0.73,0.19,1.36,0.4,1.97,0.63
		c-0.18,0.09-0.35,0.18-0.53,0.28c-0.66,0.35-1.33,0.69-2,1.03c-3.25,1.63-6.69,3.13-9.74,3.13c-3.05,0-6.48-1.51-9.74-3.13
		c-0.61-0.3-1.21-0.61-1.82-0.92C46.54,44.38,46.3,44.26,46.06,44.14z M80.07,41.08c-1.53-0.33-3.13-1.09-4.68-1.82
		c-2.14-1.01-4.34-2.06-6.6-2.1c-2.58,0-4.81,0.87-6.7,1.68c-1.21,0.52-2.35,0.94-2.89,1.13c-1.28-0.27-2.63-0.7-3.83-1.08
		l-1.1-0.35c-2.12-0.68-4.32-1.38-6.4-1.38c-2.72,0.03-5.41,1.33-8.02,2.59c-1.47,0.71-2.86,1.38-4.19,1.8
		c-4.36,1.35-8.19,1.59-11.87,0.69c4.5-3.3,8.48-7.35,12.1-11.24c1.05-1.01,2.04-2.22,3-3.4c1.95-2.4,3.97-4.88,6.18-5.01
		c1.44,0,3.7,1.04,5.88,2.05c2.77,1.27,5.63,2.59,8.34,2.71c2.85-0.02,5.95-1.47,8.7-2.75c2.16-1.01,4.19-1.96,5.51-2
		c2.69,0.08,6.49,4.75,9,7.84c0.38,0.47,0.74,0.91,1.08,1.32c3.01,3.63,6.36,7.66,10.21,11.09C89.09,43.09,84.59,42.51,80.07,41.08z
		"/>
</g>
</svg>
