<?xml version="1.0" encoding="utf-8"?>
<!-- Generator: Adobe Illustrator 28.2.0, SVG Export Plug-In . SVG Version: 6.00 Build 0)  -->
<svg version="1.1" id="Layer_1" xmlns="http://www.w3.org/2000/svg" xmlns:xlink="http://www.w3.org/1999/xlink" x="0px" y="0px"
	 viewBox="0 0 139.48 100" style="enable-background:new 0 0 139.48 100;" xml:space="preserve">
<style type="text/css">
	.st0{fill-rule:evenodd;clip-rule:evenodd;fill:#231F20;}
	.st1{fill:#231F20;}
</style>
<g>
	<path class="st0" d="M137.19,29.8c-2.33-5.89-9.16-6.07-15.73-2.66c-0.05,0.03-0.1,0.04-0.15,0.06l-8.99,3.84L76.6,19.05
		c-0.53-0.19-1.12-0.19-1.65,0l-8.35,3.66c-1.16,0.5-1.69,1.85-1.18,3.01c0.21,0.49,0.59,0.89,1.07,1.13l25.4,13.02l-19.18,8.44
		L54.7,39.67c-0.61-0.28-1.31-0.28-1.92,0l-7.03,3.16c-1.16,0.51-1.69,1.86-1.18,3.01c0.17,0.38,0.43,0.7,0.77,0.94l27.17,21.43
		c0.68,0.46,1.54,0.54,2.29,0.23l57.21-25.17C136.94,41.21,139.6,35.89,137.19,29.8z M130.04,39.07L74.11,63.65L51.26,45.42
		l2.29-1.05l18.01,8.65c0.32,0.12,0.65,0.2,0.98,0.23c0.32-0.04,0.63-0.1,0.94-0.18l24.53-10.8c0.27-0.14,0.51-0.32,0.73-0.53
		c0.87-0.92,0.83-2.36-0.08-3.24c-0.16-0.15-0.34-0.28-0.54-0.38l-25.4-13.02l3.16-1.4l35.7,11.92c0.58,0.15,1.19,0.11,1.74-0.11
		l11.88-5.26c0.72-0.36,6.03-2.6,8.06,1.71C135.29,36.27,130.82,38.75,130.04,39.07z"/>
	<path class="st0" d="M120.06,51.97c-1.26-0.06-2.34,0.91-2.4,2.17c0,0,0,0,0,0.01c-2.31,42.77-57.7,54.46-80.24,18.78
		c4.58-0.64,21.49-7.8,17.37-12.33c-0.89-0.89-2.33-0.89-3.23,0c-4.56,4.28-10.29,7.1-16.45,8.1
		c-22.15-48.93,43.23-87.14,75.17-43.87c0.72,1.04,2.15,1.3,3.19,0.58c1.04-0.72,1.3-2.15,0.58-3.19
		C79.3-24.95,7.85,15.41,30.35,69.42C12.04,71.5-7.57,56.83,18.42,47.73c1.21-0.38,1.88-1.67,1.5-2.87
		c-0.38-1.21-1.66-1.88-2.87-1.5C9.77,45.64,4.56,49.4,2.36,53.95c-6.11,16.02,18.31,21.88,30.23,19.82
		c23.91,41.15,86.83,28.8,89.63-19.4C122.28,53.11,121.32,52.04,120.06,51.97z"/>
</g>
</svg>
