<?xml version="1.0" encoding="utf-8"?>
<!-- Generator: Adobe Illustrator 28.2.0, SVG Export Plug-In . SVG Version: 6.00 Build 0)  -->
<svg version="1.1" id="Layer_1" xmlns="http://www.w3.org/2000/svg" xmlns:xlink="http://www.w3.org/1999/xlink" x="0px" y="0px"
	 viewBox="0 0 100 100" style="enable-background:new 0 0 100 100;" xml:space="preserve">
<style type="text/css">
	.st0{fill-rule:evenodd;clip-rule:evenodd;fill:#231F20;}
	.st1{fill:#231F20;}
</style>
<g>
	<path class="st0" d="M85.33,31.24c1.6-2.39,2.54-5.25,2.54-8.34c0-8.28-6.74-15.01-15.01-15.01c-8.28,0-15.01,6.73-15.01,15.01
		c0,3.1,0.94,5.98,2.56,8.37c-4.67,2.18-8.33,5.93-10.4,10.5c-2.08-4.59-5.75-8.36-10.44-10.53c1.6-2.39,2.54-5.25,2.54-8.34
		c0-8.28-6.74-15.01-15.01-15.01c-8.28,0-15.01,6.73-15.01,15.01c0,3.1,0.94,5.98,2.56,8.37C7.16,34.75,2.26,42.3,2.3,50.62v9.74
		c0,4.69,3.82,8.51,8.51,8.51h15.03c1.84,2.14,3.91,4.14,5.85,6.02l0.21,0.2c0.87,0.84,1.69,1.64,2.42,2.39
		c2.85,2.92,5.85,5.76,8.49,8.27c1.56,1.48,3.12,2.96,4.69,4.48l1.7,1.64c0.17,0.16,0.38,0.24,0.6,0.24c0.2,0,0.4-0.07,0.56-0.21
		l1.8-1.53c5.25-4.47,10.49-9.43,15.56-14.74c0.53-0.55,1.08-1.11,1.64-1.69c1.51-1.54,3.16-3.23,4.69-5.08H89.2
		c4.69,0,8.51-3.82,8.51-8.51v-9.73C97.74,42.28,92.82,34.71,85.33,31.24z M72.85,11.97c6.03,0,10.93,4.9,10.93,10.93
		c0,6.03-4.9,10.93-10.93,10.93c-6.03,0-10.93-4.9-10.93-10.93C61.92,16.87,66.82,11.97,72.85,11.97z M27.07,11.97
		C33.1,11.97,38,16.87,38,22.9c0,6.03-4.9,10.93-10.93,10.93c-6.03,0-10.93-4.9-10.93-10.93C16.14,16.87,21.04,11.97,27.07,11.97z
		 M10.8,64.82c-2.46,0-4.47-2-4.47-4.47v-9.73c0.03-7.22,4.54-13.62,11.16-16.18c2.6,2.16,5.94,3.47,9.58,3.47
		c3.65,0,7-1.31,9.61-3.49c4.09,1.57,7.37,4.59,9.3,8.38c-2.42-1.76-5.49-3.08-9.23-3.08h0c-0.27,0-0.55,0.01-0.83,0.02
		c-5.03,0.27-10.02,3.27-13.02,7.84c-2.82,4.3-3.49,9.3-1.84,13.72c0.45,1.21,1.06,2.38,1.76,3.51H10.8z M66.28,70.92
		c-0.58,0.59-1.14,1.16-1.68,1.73c-4.77,4.99-9.69,9.68-14.64,13.93c-1.4-1.35-2.79-2.67-4.18-3.99c-2.76-2.61-5.61-5.32-8.36-8.13
		c-0.83-0.85-1.76-1.75-2.73-2.69c-0.97-0.94-1.97-1.91-2.96-2.91c-0.6-0.61-1.19-1.23-1.76-1.86c-0.08-0.08-0.15-0.17-0.22-0.25
		c-0.57-0.64-1.12-1.28-1.64-1.93l0,0c-1.29-1.64-2.36-3.31-3-5.02c-1.16-3.12-0.65-6.71,1.4-9.84c2.26-3.44,5.95-5.7,9.63-5.9
		c0.21-0.01,0.41-0.02,0.61-0.02c5.67,0,9.42,4.44,11.13,7.07l0,0c0.15,0.23,0.27,0.43,0.39,0.62c0.04,0.06,0.08,0.13,0.12,0.19
		c0.09,0.16,0.18,0.3,0.25,0.43c0.02,0.04,0.05,0.09,0.07,0.12c0.07,0.13,0.13,0.24,0.17,0.32c0.01,0.01,0.02,0.04,0.03,0.05
		c0.04,0.08,0.07,0.14,0.07,0.14c0.14,0.31,0.42,0.55,0.79,0.5c0.34,0,0.64-0.21,0.78-0.52c0.15-0.35,0.35-0.76,0.6-1.22
		c0.06-0.12,0.15-0.25,0.22-0.37c0.23-0.4,0.48-0.81,0.79-1.25c1.89-2.64,5.33-5.67,11.29-5.91c3.67-0.19,6.83,1.23,9.01,3.83
		c2.23,2.65,3.12,6.32,2.46,10.07c-0.42,2.39-1.63,4.62-3.18,6.7l0,0c-0.52,0.69-1.07,1.37-1.64,2.04
		c-0.04,0.04-0.07,0.08-0.11,0.13c-0.56,0.64-1.13,1.27-1.71,1.88C67.61,69.56,66.94,70.25,66.28,70.92z M93.66,60.36
		c0,2.46-2,4.47-4.47,4.47H76.88c1.07-1.84,1.91-3.81,2.28-5.95c0.88-5.01-0.36-9.96-3.4-13.6c-3.05-3.63-7.41-5.55-12.49-5.37
		c-3.76,0.15-6.73,1.22-9.09,2.63c1.93-3.65,5.12-6.56,9.09-8.09c2.6,2.16,5.94,3.47,9.58,3.47c3.65,0,7-1.31,9.61-3.49
		c6.65,2.55,11.17,8.96,11.21,16.2V60.36z"/>
</g>
</svg>
