<?xml version="1.0" encoding="utf-8"?>
<!-- Generator: Adobe Illustrator 28.2.0, SVG Export Plug-In . SVG Version: 6.00 Build 0)  -->
<svg version="1.1" id="Layer_1" xmlns="http://www.w3.org/2000/svg" xmlns:xlink="http://www.w3.org/1999/xlink" x="0px" y="0px"
	 viewBox="0 0 118.49 84.92" style="enable-background:new 0 0 118.49 84.92;" xml:space="preserve">
<style type="text/css">
	.st0{fill-rule:evenodd;clip-rule:evenodd;fill:#231F20;}
	.st1{fill:#231F20;}
	.st2{fill:none;}
</style>
<g>
	<polygon class="st1" points="88.22,3 88.22,11.44 106.54,11.44 106.54,29.77 114.99,29.77 114.99,3 	"/>
	<polygon class="st1" points="11.95,11.44 30.27,11.44 30.27,3 3.5,3 3.5,29.77 11.95,29.77 	"/>
	<polygon class="st1" points="106.54,73.48 88.22,73.48 88.22,81.93 114.99,81.93 114.99,55.16 106.54,55.16 	"/>
	<polygon class="st1" points="11.95,55.16 3.5,55.16 3.5,81.93 30.27,81.93 30.27,73.48 11.95,73.48 	"/>
	<path class="st1" d="M95.31,37.13c0-5.34-2.08-10.36-5.85-14.13c-3.77-3.77-8.79-5.85-14.14-5.85c-5.35,0-10.37,2.08-14.13,5.85
		l-2.36,2.36L56.47,23c-7.79-7.79-20.47-7.8-28.27,0c-3.77,3.77-5.85,8.79-5.85,14.13c0,5.34,2.08,10.36,5.85,14.13l30.63,30.62
		l30.63-30.62C93.23,47.49,95.31,42.47,95.31,37.13z M84.27,46.09L58.82,71.54L33.37,46.09c-2.39-2.39-3.71-5.58-3.71-8.96
		s1.32-6.56,3.71-8.96c2.39-2.39,5.57-3.71,8.96-3.71c3.4,0,6.57,1.32,8.95,3.71l7.54,7.54l7.54-7.54c2.38-2.39,5.56-3.7,8.95-3.7
		c3.39,0,6.57,1.32,8.96,3.7C89.21,33.12,89.21,41.15,84.27,46.09z"/>
</g>
</svg>
