<?xml version="1.0" encoding="utf-8"?>
<!-- Generator: Adobe Illustrator 28.2.0, SVG Export Plug-In . SVG Version: 6.00 Build 0)  -->
<svg version="1.1" id="Layer_1" xmlns="http://www.w3.org/2000/svg" xmlns:xlink="http://www.w3.org/1999/xlink" x="0px" y="0px"
	 viewBox="0 0 130.91 100" style="enable-background:new 0 0 130.91 100;" xml:space="preserve">
<style type="text/css">
	.st0{fill-rule:evenodd;clip-rule:evenodd;fill:#231F20;}
	.st1{fill:#231F20;}
	.st2{fill:none;}
</style>
<g>
	<path class="st1" d="M124.72,75.76h-11.59V20.61c0-3.8-3.08-6.88-6.88-6.88h-6.32c-1.27,0-2.29,1.03-2.29,2.29s1.03,2.29,2.29,2.29
		h6.32c1.27,0,2.29,1.03,2.29,2.29v55.16H22.36V20.61c0-1.27,1.03-2.29,2.29-2.29h6.28c1.27,0,2.29-1.03,2.29-2.29
		s-1.03-2.29-2.29-2.29h-6.28c-3.8,0-6.88,3.08-6.88,6.88v55.16H6.18c-2.1,0-3.81,1.71-3.81,3.81c0.01,5.96,4.83,10.78,10.79,10.79
		h104.59c5.96-0.01,10.78-4.83,10.79-10.79C128.53,77.47,126.83,75.77,124.72,75.76z M117.75,85.78H13.16
		c-3.12,0-5.75-2.33-6.15-5.42h10.76h95.36h10.76C123.5,83.45,120.87,85.77,117.75,85.78z"/>
	<path class="st1" d="M63.85,59.32c0.43,0.42,1,0.65,1.6,0.65c0.6,0,1.17-0.23,1.6-0.65l23.42-22.71c3.06-2.94,4.8-7,4.81-11.25
		c0.01-4.24-1.72-8.3-4.8-11.23c-6.51-5.99-16.52-5.99-23.03,0l-2.01,1.94l-2-1.94c-6.5-5.98-16.5-5.99-23.02-0.01
		c-3.08,2.93-4.82,6.99-4.81,11.24c0.01,4.24,1.75,8.3,4.8,11.24L63.85,59.32z M43.63,17.41c2.22-2.16,5.21-3.36,8.31-3.34
		c3.1-0.02,6.09,1.18,8.32,3.35l3.61,3.49c0.89,0.86,2.3,0.86,3.19,0l3.61-3.49l0.01-0.01c4.7-4.32,11.93-4.31,16.63,0.01
		c2.17,2.07,3.4,4.94,3.4,7.94c-0.01,3-1.24,5.87-3.41,7.94L65.45,54.47L43.61,33.3c-2.16-2.08-3.39-4.94-3.4-7.94
		C40.21,22.35,41.44,19.48,43.63,17.41z"/>
</g>
</svg>
