<?xml version="1.0" encoding="utf-8"?>
<!-- Generator: Adobe Illustrator 28.2.0, SVG Export Plug-In . SVG Version: 6.00 Build 0)  -->
<svg version="1.1" id="Layer_1" xmlns="http://www.w3.org/2000/svg" xmlns:xlink="http://www.w3.org/1999/xlink" x="0px" y="0px"
	 viewBox="0 0 98.32 100" style="enable-background:new 0 0 98.32 100;" xml:space="preserve">
<style type="text/css">
	.st0{fill-rule:evenodd;clip-rule:evenodd;fill:#231F20;}
	.st1{fill:#231F20;}
	.st2{fill:none;}
</style>
<path class="st1" d="M36.61,41.22H18.8c-1.33,0-2.41,1.08-2.41,2.41s1.08,2.41,2.41,2.41h17.81c1.33,0,2.41-1.08,2.41-2.41
	S37.94,41.22,36.61,41.22z"/>
<path class="st1" d="M51.09,56.83H18.8c-1.33,0-2.41,1.08-2.41,2.41s1.08,2.41,2.41,2.41h32.29c1.33,0,2.41-1.08,2.41-2.41
	S52.42,56.83,51.09,56.83z"/>
<path class="st1" d="M54.56,72.44H18.8c-1.33,0-2.41,1.08-2.41,2.41s1.08,2.41,2.41,2.41h35.77c1.33,0,2.41-1.08,2.41-2.41
	S55.89,72.44,54.56,72.44z"/>
<path class="st1" d="M66.74,68.04v23.34H6.1V28.26h19.17c1.31,0,2.37-1.06,2.37-2.37V8.62h39.1v17.88c0,1.31,1.06,2.37,2.37,2.37h0
	c1.31,0,2.37-1.06,2.37-2.37V6.24c0-1.31-1.07-2.37-2.38-2.37H25.27c-0.29,0-0.59,0.06-0.89,0.18c-0.03,0.01-0.08,0.05-0.13,0.08
	c-0.05,0.04-0.11,0.07-0.16,0.11l-0.17,0.1c-0.1,0.05-0.19,0.1-0.24,0.15l-21.5,19.6L2.1,24.18c-0.17,0.16-0.29,0.37-0.41,0.58
	c-0.03,0.06-0.07,0.11-0.12,0.17c-0.15,0.33-0.22,0.65-0.22,0.96v67.87c0,1.31,1.06,2.37,2.37,2.37h65.39
	c1.31,0,2.37-1.06,2.37-2.37V68.04c0-1.31-1.06-2.37-2.37-2.37h0C67.81,65.67,66.74,66.73,66.74,68.04z M22.89,11.62v11.9H9.85
	L22.89,11.62z"/>
<path class="st0" d="M89.05,17.34c-4.72,0-8.56,3.84-8.56,8.56c0,1.99,0.71,3.8,1.86,5.26l-8.6,10.41
	c-0.74-0.44-1.53-0.81-2.41-1.01c-2.85-0.66-5.7,0.19-7.71,2.02L55.2,35.6c0.29-0.58,0.51-1.19,0.66-1.85l-0.04,0.01
	c0.14-0.6,0.22-1.22,0.22-1.87c0-4.72-3.84-8.56-8.56-8.56c-4.72,0-8.56,3.84-8.56,8.56c0,1.45,0.39,2.79,1.03,3.98
	c-0.01,0.01-0.02,0.01-0.02,0.02l0.18,0.18c0.16,0.28,0.34,0.55,0.53,0.81c0.64,0.86,1.44,1.6,2.37,2.18l0.16,0.17
	c1.27,0.75,2.74,1.21,4.32,1.21c1.73,0,3.34-0.52,4.69-1.41l9.04,7.48c-0.04,0.15-0.11,0.28-0.15,0.43
	c-1.07,4.6,1.8,9.21,6.39,10.28c0.65,0.15,1.3,0.22,1.94,0.22c3.89,0,7.41-2.67,8.33-6.62c0.49-2.09,0.13-4.17-0.81-5.93l9.11-11.02
	c0.94,0.36,1.95,0.58,3.01,0.58c4.72,0,8.56-3.84,8.56-8.56C97.6,21.18,93.76,17.34,89.05,17.34z M47.49,27.91
	c2.19,0,3.98,1.79,3.98,3.98c0,2.2-1.79,3.98-3.98,3.98c-2.2,0-3.98-1.79-3.98-3.98C43.51,29.69,45.29,27.91,47.49,27.91z
	 M73.28,49.79c-0.5,2.14-2.65,3.47-4.78,2.97c-2.14-0.5-3.47-2.64-2.97-4.78c0.43-1.84,2.07-3.08,3.88-3.08c0.3,0,0.6,0.03,0.9,0.11
	C72.44,45.51,73.77,47.66,73.28,49.79z M89.05,29.88c-2.19,0-3.98-1.79-3.98-3.98c0-2.2,1.79-3.98,3.98-3.98
	c2.2,0,3.98,1.79,3.98,3.98C93.03,28.09,91.24,29.88,89.05,29.88z"/>
</svg>
