<?xml version="1.0" encoding="utf-8"?>
<!-- Generator: Adobe Illustrator 28.2.0, SVG Export Plug-In . SVG Version: 6.00 Build 0)  -->
<svg version="1.1" id="Layer_1" xmlns="http://www.w3.org/2000/svg" xmlns:xlink="http://www.w3.org/1999/xlink" x="0px" y="0px"
	 viewBox="0 0 106.09 100" style="enable-background:new 0 0 106.09 100;" xml:space="preserve">
<style type="text/css">
	.st0{fill-rule:evenodd;clip-rule:evenodd;fill:#231F20;}
	.st1{fill:#231F20;}
</style>
<g>
	<path class="st1" d="M66.07,19.2H40.58c-1.19,0-2.28,1.09-2.28,2.28c0,1.12,0.85,2.28,2.28,2.28h25.49c1.19,0,2.28-1.09,2.28-2.28
		C68.35,20.36,67.5,19.2,66.07,19.2z"/>
	<path class="st1" d="M29.86,24.5c1.81,0,3.02-1.56,3.02-3.02c0-1.67-1.36-3.02-3.02-3.02c-1.49,0-2.87,1.42-3.03,3.1
		C26.84,23.29,28.4,24.5,29.86,24.5z"/>
	<path class="st1" d="M74.94,75.16l-7.35-5.51c-0.4-0.25-0.88-0.4-1.37-0.4c-0.66,0-1.34,0.27-1.86,0.97
		c-0.57,0.92-0.65,2.32,0.57,3.23l9.23,6.83c0.4,0.27,0.8,0.39,1.34,0.39h0.55c0.47-0.14,0.98-0.46,1.35-0.95l13.85-19.2
		c0.4-0.53,0.55-1.12,0.45-1.7s-0.46-1.13-1.01-1.54c-1.06-0.79-2.38-0.56-3.23,0.56L74.94,75.16z"/>
	<path class="st1" d="M29.86,39.1c1.81,0,3.02-1.56,3.02-3.02c0-1.67-1.36-3.02-3.02-3.02c-1.58,0-2.88,1.33-3.02,3.09
		C26.84,37.88,28.4,39.1,29.86,39.1z"/>
	<path class="st1" d="M84.92,3.87H27.64c-5.76,0-10.93,3.78-12.86,9.4c-0.47,1.41-0.69,2.91-0.69,4.71v43.9H3.63
		c-1.19,0-2.28,1.09-2.28,2.28c0,0.66,0.02,6.63,0.55,13.42l0,0.44c0.68,6.42,6.27,11.33,13,11.33h47.58l0.23,0.17
		c6.4,4.87,14.17,6.61,21.85,4.92c10.42-2.3,18.63-11.29,19.97-21.87c0.88-7-0.97-13.87-5.22-19.34
		c-4.25-5.48-10.39-8.97-17.27-9.83l-0.75-0.09V31.52h13.97c1.2,0,2.28-1.09,2.28-2.28c0-0.26-0.01-6.51-0.55-13.41
		c-0.1-1.06-0.28-2.03-0.51-2.92C94.83,7.89,90.33,4.35,84.92,3.87z M18.66,17.97c0-1.1,0.22-2.3,0.62-3.27
		c1.2-3.62,4.65-6.08,8.56-6.08h50.88l-0.55,1.68c-1.2,3.42-1.81,7.18-1.81,11.18v21.64l-0.76,0.09c-4.43,0.53-8.57,2.14-11.97,4.64
		l-0.23,0.17H40.58c-1.19,0-2.28,1.09-2.28,2.28c0,1.12,0.85,2.28,2.28,2.28h17.97l-1.03,1.37c-1.43,1.9-2.53,4.05-3.57,6.98
		l-0.21,0.57H18.66V17.97z M15.08,84.23c-4.4,0-8.03-3.19-8.43-7.43c-0.35-3.49-0.56-7.11-0.56-9.69v-0.86h46.79v0.86
		c0,0.16-0.01,0.32-0.02,0.48c-0.03,0.39-0.04,0.55,0.07,0.7l0.14,0.22v0.26c0,5.12,1.42,10.01,4.11,14.13l0.86,1.33H15.08z
		 M93.82,53.98c3.96,4.02,6.09,9.28,5.99,14.81c0,5.77-2.27,11.16-6.38,15.17c-3.98,3.88-9.21,5.99-14.79,5.99
		c-0.19,0-0.38,0-0.57-0.01c-11.08-0.29-20.32-9.53-20.6-20.6c-0.15-5.79,1.98-11.25,5.99-15.37s9.4-6.38,15.19-6.38
		C84.38,47.6,89.77,49.86,93.82,53.98z M92.98,26.59H81.29V21.3c0-3.04,0.49-6.2,1.51-9.66l0.93-3.02h0.63
		c0.53,0,1.04,0.06,1.54,0.15l2.49,0.04c0.42,0.21,2.18,1.28,3.23,4.27c0.26,0.54,0.48,1.11,0.6,1.72c0.08,0.38,0.14,0.79,0.19,1.22
		c0.35,3.52,0.56,7.14,0.56,9.71V26.59z"/>
	<path class="st1" d="M40.58,38.17h25.49c1.19,0,2.28-1.09,2.28-2.28c0-1.12-0.85-2.28-2.28-2.28H40.58c-1.19,0-2.28,1.09-2.28,2.28
		C38.3,37.01,39.15,38.17,40.58,38.17z"/>
	<path class="st1" d="M29.86,53.32c1.81,0,3.02-1.56,3.02-3.02c0-1.66-1.36-3.02-3.02-3.02c-1.49,0-2.87,1.42-3.03,3.1
		C26.84,52.11,28.4,53.32,29.86,53.32z"/>
</g>
</svg>
