<?xml version="1.0" encoding="utf-8"?>
<!-- Generator: Adobe Illustrator 28.2.0, SVG Export Plug-In . SVG Version: 6.00 Build 0)  -->
<svg version="1.1" id="Layer_1" xmlns="http://www.w3.org/2000/svg" xmlns:xlink="http://www.w3.org/1999/xlink" x="0px" y="0px"
	 viewBox="0 0 100 100" style="enable-background:new 0 0 100 100;" xml:space="preserve">
<style type="text/css">
	.st0{fill-rule:evenodd;clip-rule:evenodd;fill:#231F20;}
	.st1{fill:#231F20;}
</style>
<g>
	<path class="st0" d="M90.54,15.2h-6.72c-2.52,0-4.57,2.05-4.57,4.57v36.05h15.86V19.77C95.11,17.33,92.98,15.2,90.54,15.2z
		 M90.58,51.09h-6.79V19.74h6.79V51.09z"/>
	<path class="st0" d="M69.92,26.43H63.2c-2.52,0-4.57,2.05-4.57,4.57v24.82h15.86V31C74.49,28.57,72.36,26.43,69.92,26.43z
		 M69.96,51.09h-6.79V30.97h6.79V51.09z"/>
	<path class="st0" d="M41.19,74.29l-0.46-0.16l0.36-0.32c6.46-5.79,7.02-15.75,1.24-22.22c-5.79-6.46-15.75-7.02-22.22-1.24
		c-3.13,2.8-4.99,6.66-5.22,10.85c-0.23,4.2,1.18,8.23,3.98,11.37c0.38,0.42,0.8,0.84,1.24,1.24l0.36,0.32l-0.46,0.16
		C10.98,77.45,4.9,86.01,4.89,95.59c0,1.35,1.1,2.45,2.46,2.45c1.35,0,2.45-1.1,2.45-2.45c0.01-9.75,7.95-17.68,17.69-17.69h6.3
		c9.75,0.01,17.69,7.95,17.69,17.69c0,1.35,1.1,2.45,2.45,2.45c1.35,0,2.46-1.1,2.46-2.45C56.37,85.99,50.26,77.43,41.19,74.29z
		 M30.61,72.93c-5.94,0-10.77-4.83-10.77-10.77S24.67,51.4,30.61,51.4s10.77,4.83,10.77,10.77S36.55,72.93,30.61,72.93z"/>
	<path class="st0" d="M42.52,6.49h6.79v44.56c1.11,1.59,1.75,3.11,2.02,4.76h2.52V6.53c0-2.52-2.05-4.57-4.57-4.57h-6.72
		c-2.52,0-4.57,2.05-4.57,4.57v35.92c1.62,0.67,3.15,1.56,4.54,2.65V6.49z"/>
</g>
</svg>
