<svg width="24" height="25" viewBox="0 0 24 25" fill="none" xmlns="http://www.w3.org/2000/svg">
<path d="M20 2.7207H4C2.89 2.7207 2 3.6107 2 4.7207V16.7207C2 17.8307 2.9 18.7207 4 18.7207H8V21.7207C8 22.2707 8.45 22.7207 9 22.7207H9.5C9.75 22.7207 10 22.6207 10.2 22.4307L13.9 18.7207H20C21.1 18.7207 22 17.8207 22 16.7207V4.7207C22 3.6107 21.1 2.7207 20 2.7207ZM9.08 15.7207H7V13.6307L13.17 7.4407L15.24 9.5207L9.08 15.7207ZM16.84 7.9207L15.83 8.9307L13.76 6.9007L14.77 5.8807C14.97 5.6707 15.31 5.6607 15.55 5.8807L16.84 7.1307C17.05 7.3407 17.06 7.6807 16.84 7.9207Z" fill="#C2CFE0"/>
</svg>
