<svg width="24" height="25" viewBox="0 0 24 25" fill="none" xmlns="http://www.w3.org/2000/svg">
<path d="M20.83 11.7208C20.6218 11.1383 20.2386 10.6343 19.7329 10.278C19.2271 9.92172 18.6236 9.73047 18.005 9.73047C17.3864 9.73047 16.7829 9.92172 16.2771 10.278C15.7714 10.6343 15.3882 11.1383 15.18 11.7208H8.82C8.6118 11.1383 8.22859 10.6343 7.72287 10.278C7.21715 9.92172 6.61364 9.73047 5.995 9.73047C5.37636 9.73047 4.77285 9.92172 4.26713 10.278C3.76141 10.6343 3.3782 11.1383 3.17 11.7208H1V13.7208H3.17C3.3782 14.3034 3.76141 14.8073 4.26713 15.1636C4.77285 15.5199 5.37636 15.7112 5.995 15.7112C6.61364 15.7112 7.21715 15.5199 7.72287 15.1636C8.22859 14.8073 8.6118 14.3034 8.82 13.7208H15.18C15.3882 14.3034 15.7714 14.8073 16.2771 15.1636C16.7829 15.5199 17.3864 15.7112 18.005 15.7112C18.6236 15.7112 19.2271 15.5199 19.7329 15.1636C20.2386 14.8073 20.6218 14.3034 20.83 13.7208H23V11.7208H20.83ZM6 13.7208C5.80222 13.7208 5.60888 13.6622 5.44443 13.5523C5.27998 13.4424 5.15181 13.2862 5.07612 13.1035C5.00043 12.9208 4.98063 12.7197 5.01921 12.5257C5.0578 12.3318 5.15304 12.1536 5.29289 12.0137C5.43275 11.8739 5.61093 11.7786 5.80491 11.74C5.99889 11.7015 6.19996 11.7213 6.38268 11.7969C6.56541 11.8726 6.72159 12.0008 6.83147 12.1653C6.94135 12.3297 7 12.523 7 12.7208C7 12.986 6.89464 13.2404 6.70711 13.4279C6.51957 13.6155 6.26522 13.7208 6 13.7208ZM18 13.7208C17.8022 13.7208 17.6089 13.6622 17.4444 13.5523C17.28 13.4424 17.1518 13.2862 17.0761 13.1035C17.0004 12.9208 16.9806 12.7197 17.0192 12.5257C17.0578 12.3318 17.153 12.1536 17.2929 12.0137C17.4327 11.8739 17.6109 11.7786 17.8049 11.74C17.9989 11.7015 18.2 11.7213 18.3827 11.7969C18.5654 11.8726 18.7216 12.0008 18.8315 12.1653C18.9414 12.3297 19 12.523 19 12.7208C19 12.986 18.8946 13.2404 18.7071 13.4279C18.5196 13.6155 18.2652 13.7208 18 13.7208Z" fill="#C2CFE0"/>
</svg>
