<svg width="24" height="25" viewBox="0 0 24 25" fill="none" xmlns="http://www.w3.org/2000/svg">
<path d="M18 14.7207H10.5L12.5 12.7207H18V14.7207ZM6 14.7207V12.2207L12.88 5.3607C13.07 5.1707 13.39 5.1707 13.59 5.3607L15.35 7.1307C15.55 7.3307 15.55 7.6407 15.35 7.8407L8.47 14.7207H6ZM20 2.7207H4C3.46957 2.7207 2.96086 2.93142 2.58579 3.30649C2.21071 3.68156 2 4.19027 2 4.7207V22.7207L6 18.7207H20C20.5304 18.7207 21.0391 18.51 21.4142 18.1349C21.7893 17.7598 22 17.2511 22 16.7207V4.7207C22 3.6107 21.1 2.7207 20 2.7207Z" fill="#C2CFE0"/>
</svg>
