<svg width="19" height="17" viewBox="0 0 19 17" fill="none" xmlns="http://www.w3.org/2000/svg">
<path d="M5 9.7207V7.7207H19V9.7207H5ZM5 15.7207V13.7207H19V15.7207H5ZM5 3.7207V1.7207H19V3.7207H5ZM1 4.7207V1.7207H0V0.720703H2V4.7207H1ZM0 13.7207V12.7207H3V16.7207H0V15.7207H2V15.2207H1V14.2207H2V13.7207H0ZM2.25 6.7207C2.44891 6.7207 2.63968 6.79972 2.78033 6.94037C2.92098 7.08103 3 7.27179 3 7.4707C3 7.6707 2.92 7.8607 2.79 7.9907L1.12 9.7207H3V10.7207H0V9.8007L2 7.7207H0V6.7207H2.25Z" fill="#C2CFE0"/>
</svg>
