<svg width="24" height="25" viewBox="0 0 24 25" fill="none" xmlns="http://www.w3.org/2000/svg">
<path d="M15 14.7207C12.33 14.7207 7 16.0507 7 18.7207V20.7207H23V18.7207C23 16.0507 17.67 14.7207 15 14.7207ZM6 10.7207V7.7207H4V10.7207H1V12.7207H4V15.7207H6V12.7207H9V10.7207H6ZM15 12.7207C16.0609 12.7207 17.0783 12.2993 17.8284 11.5491C18.5786 10.799 19 9.78157 19 8.7207C19 7.65984 18.5786 6.64242 17.8284 5.89228C17.0783 5.14213 16.0609 4.7207 15 4.7207C13.9391 4.7207 12.9217 5.14213 12.1716 5.89228C11.4214 6.64242 11 7.65984 11 8.7207C11 9.78157 11.4214 10.799 12.1716 11.5491C12.9217 12.2993 13.9391 12.7207 15 12.7207Z" fill="#C2CFE0"/>
</svg>
