<svg width="24" height="19" viewBox="0 0 24 19" fill="none" xmlns="http://www.w3.org/2000/svg">
<path d="M22 0.5H2C1.46957 0.5 0.960859 0.710714 0.585786 1.08579C0.210714 1.46086 0 1.96957 0 2.5L0 16.5C0 17.0304 0.210714 17.5391 0.585786 17.9142C0.960859 18.2893 1.46957 18.5 2 18.5H22C22.5304 18.5 23.0391 18.2893 23.4142 17.9142C23.7893 17.5391 24 17.0304 24 16.5V2.5C24 1.96957 23.7893 1.46086 23.4142 1.08579C23.0391 0.710714 22.5304 0.5 22 0.5ZM22 16.5H2V2.5H22V16.5ZM21 3.5H14V8.5H21V3.5ZM20 5.5L17.5 7.25L15 5.5V4.5L17.5 6.25L20 4.5V5.5ZM9 9.5C9.79565 9.5 10.5587 9.18393 11.1213 8.62132C11.6839 8.05871 12 7.29565 12 6.5C12 5.70435 11.6839 4.94129 11.1213 4.37868C10.5587 3.81607 9.79565 3.5 9 3.5C8.20435 3.5 7.44129 3.81607 6.87868 4.37868C6.31607 4.94129 6 5.70435 6 6.5C6 7.29565 6.31607 8.05871 6.87868 8.62132C7.44129 9.18393 8.20435 9.5 9 9.5ZM9 5.5C9.26522 5.5 9.51957 5.60536 9.70711 5.79289C9.89464 5.98043 10 6.23478 10 6.5C10 6.76522 9.89464 7.01957 9.70711 7.20711C9.51957 7.39464 9.26522 7.5 9 7.5C8.73478 7.5 8.48043 7.39464 8.29289 7.20711C8.10536 7.01957 8 6.76522 8 6.5C8 6.23478 8.10536 5.98043 8.29289 5.79289C8.48043 5.60536 8.73478 5.5 9 5.5ZM15 14.09C15 11.59 11.03 10.5 9 10.5C6.97 10.5 3 11.59 3 14.09V15.5H15V14.09ZM5.5 13.5C6.22 13 7.7 12.5 9 12.5C10.3 12.5 11.77 13 12.5 13.5H5.5Z" fill="#FF3C5F"/>
</svg>
