<svg width="30" height="30" viewBox="0 0 30 30" fill="none" xmlns="http://www.w3.org/2000/svg">
<rect width="30" height="30" rx="15" fill="#0C223D"/>
<path d="M15.3333 9C16.1732 9 16.9786 9.33363 17.5725 9.92749C18.1664 10.5214 18.5 11.3268 18.5 12.1667C18.5 13.0065 18.1664 13.812 17.5725 14.4058C16.9786 14.9997 16.1732 15.3333 15.3333 15.3333C14.4935 15.3333 13.688 14.9997 13.0942 14.4058C12.5003 13.812 12.1667 13.0065 12.1667 12.1667C12.1667 11.3268 12.5003 10.5214 13.0942 9.92749C13.688 9.33363 14.4935 9 15.3333 9ZM15.3333 16.9167C18.8325 16.9167 21.6667 18.3337 21.6667 20.0833V21.6667H9V20.0833C9 18.3337 11.8342 16.9167 15.3333 16.9167Z" fill="#FF3C5F"/>
</svg>
