<svg width="30" height="30" viewBox="0 0 30 30" fill="none" xmlns="http://www.w3.org/2000/svg">
<rect width="30" height="30" rx="15" fill="#0C223D"/>
<path d="M20.0417 18.458V20.0413H10.5417V18.458C10.5417 18.458 10.5417 15.2913 15.2917 15.2913C20.0417 15.2913 20.0417 18.458 20.0417 18.458ZM17.6667 11.333C17.6667 10.8633 17.5274 10.4041 17.2664 10.0135C17.0054 9.62296 16.6345 9.31855 16.2005 9.1388C15.7666 8.95904 15.289 8.912 14.8283 9.00364C14.3676 9.09528 13.9444 9.32148 13.6123 9.65363C13.2801 9.98578 13.0539 10.409 12.9623 10.8697C12.8707 11.3304 12.9177 11.8079 13.0975 12.2419C13.2772 12.6759 13.5816 13.0468 13.9722 13.3077C14.3628 13.5687 14.8219 13.708 15.2917 13.708C15.9216 13.708 16.5256 13.4578 16.971 13.0124C17.4164 12.567 17.6667 11.9629 17.6667 11.333ZM20.2 15.3388C20.6328 15.7381 20.9816 16.2195 21.2263 16.7551C21.471 17.2906 21.6065 17.8695 21.625 18.458V20.0413H24V18.458C24 18.458 24 15.7268 20.2 15.3388ZM19.25 8.95801C19.0108 8.95815 18.7731 8.99554 18.5454 9.06884C19.0086 9.73303 19.2569 10.5233 19.2569 11.333C19.2569 12.1427 19.0086 12.933 18.5454 13.5972C18.7731 13.6705 19.0108 13.7079 19.25 13.708C19.8799 13.708 20.484 13.4578 20.9294 13.0124C21.3748 12.567 21.625 11.9629 21.625 11.333C21.625 10.7031 21.3748 10.099 20.9294 9.65363C20.484 9.20823 19.8799 8.95801 19.25 8.95801ZM11.3333 12.9163H8.95833V10.5413H7.375V12.9163H5V14.4997H7.375V16.8747H8.95833V14.4997H11.3333V12.9163Z" fill="#FF3C5F"/>
</svg>
