<svg width="24" height="24" viewBox="0 0 24 24" fill="none" xmlns="http://www.w3.org/2000/svg">
<rect width="24" height="23.6712" rx="11.8356" fill="#0C223D"/>
<g clip-path="url(#clip0_2816_3398)">
<path d="M9.9 6.83545H14.1C15.7 6.83545 17 8.13545 17 9.73545V13.9354C17 14.7046 16.6945 15.4422 16.1506 15.9861C15.6068 16.5299 14.8691 16.8354 14.1 16.8354H9.9C8.3 16.8354 7 15.5354 7 13.9354V9.73545C7 8.96632 7.30553 8.2287 7.84939 7.68484C8.39325 7.14098 9.13087 6.83545 9.9 6.83545ZM9.8 7.83545C9.32261 7.83545 8.86477 8.02509 8.52721 8.36266C8.18964 8.70022 8 9.15806 8 9.63545V14.0354C8 15.0304 8.805 15.8354 9.8 15.8354H14.2C14.6774 15.8354 15.1352 15.6458 15.4728 15.3082C15.8104 14.9707 16 14.5128 16 14.0354V9.63545C16 8.64045 15.195 7.83545 14.2 7.83545H9.8ZM14.625 8.58545C14.7908 8.58545 14.9497 8.6513 15.0669 8.76851C15.1842 8.88572 15.25 9.04469 15.25 9.21045C15.25 9.37621 15.1842 9.53518 15.0669 9.65239C14.9497 9.7696 14.7908 9.83545 14.625 9.83545C14.4592 9.83545 14.3003 9.7696 14.1831 9.65239C14.0658 9.53518 14 9.37621 14 9.21045C14 9.04469 14.0658 8.88572 14.1831 8.76851C14.3003 8.6513 14.4592 8.58545 14.625 8.58545ZM12 9.33545C12.663 9.33545 13.2989 9.59884 13.7678 10.0677C14.2366 10.5365 14.5 11.1724 14.5 11.8354C14.5 12.4985 14.2366 13.1344 13.7678 13.6032C13.2989 14.0721 12.663 14.3354 12 14.3354C11.337 14.3354 10.7011 14.0721 10.2322 13.6032C9.76339 13.1344 9.5 12.4985 9.5 11.8354C9.5 11.1724 9.76339 10.5365 10.2322 10.0677C10.7011 9.59884 11.337 9.33545 12 9.33545ZM12 10.3354C11.6022 10.3354 11.2206 10.4935 10.9393 10.7748C10.658 11.0561 10.5 11.4376 10.5 11.8354C10.5 12.2333 10.658 12.6148 10.9393 12.8961C11.2206 13.1774 11.6022 13.3354 12 13.3354C12.3978 13.3354 12.7794 13.1774 13.0607 12.8961C13.342 12.6148 13.5 12.2333 13.5 11.8354C13.5 11.4376 13.342 11.0561 13.0607 10.7748C12.7794 10.4935 12.3978 10.3354 12 10.3354Z" fill="#FF3C5F"/>
</g>
<defs>
<clipPath id="clip0_2816_3398">
<rect width="10" height="10" fill="white" transform="translate(7 6.83545)"/>
</clipPath>
</defs>
</svg>
