<svg width="8" height="8" viewBox="0 0 8 8" fill="none" xmlns="http://www.w3.org/2000/svg">
<path d="M8 6.80469V5.92969H2.22222V6.80469H8ZM8 4.17969V3.30469H2.22222V4.17969H8ZM2.22222 1.55469H8V0.679688H2.22222V1.55469ZM0.444444 0.679688V1.55469H1.33333V0.679688H0.444444ZM0 0.679688C0 0.563655 0.0468252 0.452376 0.130175 0.370328C0.213524 0.288281 0.32657 0.242187 0.444444 0.242188H1.33333C1.45121 0.242188 1.56425 0.288281 1.6476 0.370328C1.73095 0.452376 1.77778 0.563655 1.77778 0.679688V1.55469C1.77778 1.67072 1.73095 1.782 1.6476 1.86405C1.56425 1.94609 1.45121 1.99219 1.33333 1.99219H0.444444C0.32657 1.99219 0.213524 1.94609 0.130175 1.86405C0.0468252 1.782 0 1.67072 0 1.55469V0.679688ZM0.444444 3.30469V4.17969H1.33333V3.30469H0.444444ZM0 3.30469C0 3.18866 0.0468252 3.07738 0.130175 2.99533C0.213524 2.91328 0.32657 2.86719 0.444444 2.86719H1.33333C1.45121 2.86719 1.56425 2.91328 1.6476 2.99533C1.73095 3.07738 1.77778 3.18866 1.77778 3.30469V4.17969C1.77778 4.29572 1.73095 4.407 1.6476 4.48905C1.56425 4.57109 1.45121 4.61719 1.33333 4.61719H0.444444C0.32657 4.61719 0.213524 4.57109 0.130175 4.48905C0.0468252 4.407 0 4.29572 0 4.17969V3.30469ZM0.444444 5.92969V6.80469H1.33333V5.92969H0.444444ZM0 5.92969C0 5.81366 0.0468252 5.70237 0.130175 5.62033C0.213524 5.53828 0.32657 5.49219 0.444444 5.49219H1.33333C1.45121 5.49219 1.56425 5.53828 1.6476 5.62033C1.73095 5.70237 1.77778 5.81366 1.77778 5.92969V6.80469C1.77778 6.92072 1.73095 7.032 1.6476 7.11405C1.56425 7.19609 1.45121 7.24219 1.33333 7.24219H0.444444C0.32657 7.24219 0.213524 7.19609 0.130175 7.11405C0.0468252 7.032 0 6.92072 0 6.80469V5.92969Z" fill="white"/>
</svg>
