<svg width="29" height="20" viewBox="0 0 29 20" fill="none" xmlns="http://www.w3.org/2000/svg">
<path d="M22.5556 7.36719L29 1.03385V18.4505L22.5556 12.1172V17.6589C22.5556 18.0788 22.3858 18.4815 22.0837 18.7784C21.7815 19.0754 21.3717 19.2422 20.9444 19.2422H1.61111C1.18382 19.2422 0.774025 19.0754 0.471883 18.7784C0.169742 18.4815 0 18.0788 0 17.6589V1.82552C0 1.40559 0.169742 1.00287 0.471883 0.705935C0.774025 0.409003 1.18382 0.242187 1.61111 0.242188H20.9444C21.3717 0.242188 21.7815 0.409003 22.0837 0.705935C22.3858 1.00287 22.5556 1.40559 22.5556 1.82552V7.36719ZM17.7222 16.0755V14.4922C17.7222 12.3864 13.4206 11.3255 11.2778 11.3255C9.135 11.3255 4.83333 12.3864 4.83333 14.4922V16.0755H17.7222ZM11.2778 3.40885C10.4232 3.40885 9.60361 3.74248 8.99932 4.33635C8.39504 4.93022 8.05556 5.73567 8.05556 6.57552C8.05556 7.41537 8.39504 8.22083 8.99932 8.81469C9.60361 9.40856 10.4232 9.74219 11.2778 9.74219C12.1324 9.74219 12.9519 9.40856 13.5562 8.81469C14.1605 8.22083 14.5 7.41537 14.5 6.57552C14.5 5.73567 14.1605 4.93022 13.5562 4.33635C12.9519 3.74248 12.1324 3.40885 11.2778 3.40885Z" fill="#FF3C5F"/>
</svg>
