<svg width="15" height="14" viewBox="0 0 15 14" fill="none" xmlns="http://www.w3.org/2000/svg">
<path d="M15 12.9297V11.3047H4.16667V12.9297H15ZM15 8.05469V6.42969H4.16667V8.05469H15ZM4.16667 3.17969H15V1.55469H4.16667V3.17969ZM0.833333 1.55469V3.17969H2.5V1.55469H0.833333ZM0 1.55469C0 1.3392 0.0877973 1.13254 0.244078 0.980163C0.400358 0.82779 0.61232 0.742187 0.833333 0.742188H2.5C2.72101 0.742188 2.93298 0.82779 3.08926 0.980163C3.24554 1.13254 3.33333 1.3392 3.33333 1.55469V3.17969C3.33333 3.39518 3.24554 3.60184 3.08926 3.75421C2.93298 3.90658 2.72101 3.99219 2.5 3.99219H0.833333C0.61232 3.99219 0.400358 3.90658 0.244078 3.75421C0.0877973 3.60184 0 3.39518 0 3.17969V1.55469ZM0.833333 6.42969V8.05469H2.5V6.42969H0.833333ZM0 6.42969C0 6.2142 0.0877973 6.00754 0.244078 5.85516C0.400358 5.70279 0.61232 5.61719 0.833333 5.61719H2.5C2.72101 5.61719 2.93298 5.70279 3.08926 5.85516C3.24554 6.00754 3.33333 6.2142 3.33333 6.42969V8.05469C3.33333 8.27018 3.24554 8.47684 3.08926 8.62921C2.93298 8.78158 2.72101 8.86719 2.5 8.86719H0.833333C0.61232 8.86719 0.400358 8.78158 0.244078 8.62921C0.0877973 8.47684 0 8.27018 0 8.05469V6.42969ZM0.833333 11.3047V12.9297H2.5V11.3047H0.833333ZM0 11.3047C0 11.0892 0.0877973 10.8825 0.244078 10.7302C0.400358 10.5778 0.61232 10.4922 0.833333 10.4922H2.5C2.72101 10.4922 2.93298 10.5778 3.08926 10.7302C3.24554 10.8825 3.33333 11.0892 3.33333 11.3047V12.9297C3.33333 13.1452 3.24554 13.3518 3.08926 13.5042C2.93298 13.6566 2.72101 13.7422 2.5 13.7422H0.833333C0.61232 13.7422 0.400358 13.6566 0.244078 13.5042C0.0877973 13.3518 0 13.1452 0 12.9297V11.3047Z" fill="white"/>
</svg>
