<svg width="30" height="30" viewBox="0 0 30 30" fill="none" xmlns="http://www.w3.org/2000/svg">
<path d="M25.625 2.11719H20.625C19.2443 2.11719 18.125 3.23648 18.125 4.61719V9.61719C18.125 10.9979 19.2443 12.1172 20.625 12.1172H25.625C27.0057 12.1172 28.125 10.9979 28.125 9.61719V4.61719C28.125 3.23648 27.0057 2.11719 25.625 2.11719Z" stroke="#0C223D" stroke-width="3" stroke-linecap="round" stroke-linejoin="round"/>
<path d="M9.375 18.3672H4.375C2.99429 18.3672 1.875 19.4865 1.875 20.8672V25.8672C1.875 27.2479 2.99429 28.3672 4.375 28.3672H9.375C10.7557 28.3672 11.875 27.2479 11.875 25.8672V20.8672C11.875 19.4865 10.7557 18.3672 9.375 18.3672Z" stroke="#0C223D" stroke-width="3" stroke-linecap="round" stroke-linejoin="round"/>
<path d="M25.625 18.3672H20.625C19.2443 18.3672 18.125 19.4865 18.125 20.8672V25.8672C18.125 27.2479 19.2443 28.3672 20.625 28.3672H25.625C27.0057 28.3672 28.125 27.2479 28.125 25.8672V20.8672C28.125 19.4865 27.0057 18.3672 25.625 18.3672Z" stroke="#0C223D" stroke-width="3" stroke-linecap="round" stroke-linejoin="round"/>
<path d="M9.375 2.11719H4.375C2.99429 2.11719 1.875 3.23648 1.875 4.61719V9.61719C1.875 10.9979 2.99429 12.1172 4.375 12.1172H9.375C10.7557 12.1172 11.875 10.9979 11.875 9.61719V4.61719C11.875 3.23648 10.7557 2.11719 9.375 2.11719Z" stroke="#0C223D" stroke-width="3" stroke-linecap="round" stroke-linejoin="round"/>
</svg>
