<svg width="30" height="30" viewBox="0 0 30 30" fill="none" xmlns="http://www.w3.org/2000/svg">
<rect width="30" height="30" rx="15" fill="#0C223D"/>
<path d="M19.8424 18C20.1693 18 20.4449 18.12 20.6692 18.36C20.8935 18.6 21.0037 18.88 20.9999 19.2L16.4214 21L12.4302 19.8V14.4H13.542L17.6872 16.014C17.9837 16.138 18.1319 16.362 18.1319 16.686C18.1319 16.874 18.0673 17.038 17.9381 17.178C17.8088 17.318 17.6454 17.392 17.4477 17.4H15.8512L14.8534 16.998L14.6653 17.562L15.8512 18H19.8424ZM17.5617 9.738C17.9647 9.246 18.4778 9 19.1012 9C19.6182 9 20.0553 9.2 20.4126 9.6C20.7699 10 20.96 10.46 20.9828 10.98C20.9828 11.392 20.7927 11.884 20.4126 12.456C20.0325 13.028 19.6581 13.506 19.2894 13.89C18.9207 14.274 18.3448 14.844 17.5617 15.6C16.7711 14.844 16.1895 14.274 15.817 13.89C15.4445 13.506 15.0701 13.028 14.6938 12.456C14.3175 11.884 14.1331 11.392 14.1407 10.98C14.1407 10.436 14.3251 9.976 14.6938 9.6C15.0625 9.224 15.5072 9.024 16.028 9C16.6362 9 17.1474 9.246 17.5617 9.738ZM9 14.4H11.2898V21H9V14.4Z" fill="#FF3C5F"/>
</svg>
