<?xml version="1.0" encoding="utf-8"?>
<!-- Generator: Adobe Illustrator 25.2.1, SVG Export Plug-In . SVG Version: 6.00 Build 0)  -->
<svg version="1.1" id="Layer_1" xmlns="http://www.w3.org/2000/svg" xmlns:xlink="http://www.w3.org/1999/xlink" x="0px" y="0px"
	 viewBox="0 0 677.8 224.6" style="enable-background:new 0 0 677.8 224.6;" xml:space="preserve">
<style type="text/css">
	.st0{fill:#B3CCD6;}
	.st1{fill:#FFFFFF;}
	.st2{fill:#2E3F51;}
	.st3{fill:#2B3D50;}
</style>
<polygon class="st0" points="0,220.9 0,1.5 158.7,1.5 158.7,27.4 29.1,27.4 29.1,94.6 150.5,94.6 150.5,120.3 29.1,120.3 29.1,195 
	163.8,195 163.8,220.9 "/>
<path class="st1" d="M333.8,144.4V45.5l-68.7,98.9H333.8z M333.8,221.6v-52.5h-95.2v-24.7L338.7,2.2h22v142.2h29.6v24.7h-29.6v52.5
	H333.8z"/>
<path class="st0" d="M607.4,1.5h29v126.8c0,22.1-2.5,39.6-7.5,52.5c-5,13-14,23.5-27,31.6s-30.1,12.2-51.3,12.2s-37.4-3.5-50.4-10.6
	c-13.1-7.1-22.4-17.3-28-30.8c-5.6-13.4-8.4-31.8-8.4-55V1.4h29V128c0,19.1,1.8,33.1,5.3,42.1s9.6,16,18.3,20.9
	c8.6,4.9,19.2,7.3,31.7,7.3c21.3,0,36.6-4.8,45.6-14.5c9.1-9.7,13.6-28.3,13.6-55.8V1.4L607.4,1.5z"/>
<rect x="192.6" y="0" class="st2" width="15.8" height="220.6"/>
<rect x="418.2" y="0" class="st3" width="15.8" height="220.6"/>
<path class="st1" d="M677.8,13.6c0,2.4-0.6,4.7-1.8,6.8c-1.2,2.1-2.9,3.7-5,4.9c-2.1,1.2-4.4,1.8-6.8,1.8s-4.7-0.6-6.8-1.8
	c-2.1-1.2-3.8-2.9-5-4.9c-1.2-2.1-1.8-4.3-1.8-6.8s0.6-4.7,1.8-6.8c1.2-2.1,2.9-3.7,5-5c2.1-1.2,4.4-1.8,6.8-1.8s4.7,0.6,6.8,1.8
	c2.1,1.2,3.8,2.9,5,5S677.8,11.2,677.8,13.6z M675,13.7c0-3-1.1-5.6-3.1-7.7c-2.1-2.1-4.6-3.1-7.6-3.1s-5.5,1-7.7,3.1
	s-3.2,4.6-3.2,7.6s0.5,3.7,1.4,5.3c1,1.6,2.3,2.9,3.9,3.9c1.7,1,3.5,1.4,5.4,1.4s3.7-0.5,5.4-1.4c1.7-1,3-2.2,4-3.9
	C674.5,17.3,674.9,15.5,675,13.7L675,13.7z M658.6,6.2h6.6c1.4,0,2.4,0.2,3.1,0.5c0.7,0.3,1.2,0.8,1.6,1.5c0.4,0.7,0.6,1.5,0.6,2.4
	s-0.1,1.4-0.4,1.9c-0.2,0.5-0.7,1-1.4,1.5c0.5,0.3,0.9,0.7,1.1,1c0.2,0.4,0.3,1.1,0.4,2c0,1.8,0.2,2.9,0.2,3.2
	c0,0.3,0.3,0.6,0.6,0.9h-3.7c-0.2-0.4-0.3-0.7-0.3-1s0-0.7,0-1.4c0-1.3-0.1-2.1-0.2-2.4c-0.1-0.3-0.3-0.5-0.6-0.7s-0.8-0.2-1.6-0.2
	H662v5.8h-3.3V6.3L658.6,6.2z M661.9,9.1v3.5h2.7c1.1,0,1.7-0.1,2.1-0.4c0.3-0.3,0.5-0.7,0.5-1.4s-0.2-1.1-0.5-1.3s-1-0.4-2.1-0.4
	C664.6,9.1,661.9,9.1,661.9,9.1z"/>
</svg>
