<svg id="Layer_1" data-name="Layer 1" xmlns="http://www.w3.org/2000/svg" viewBox="0 0 693 224.6"><defs><style>.cls-1{fill:#b3ccd6;}.cls-2{fill:#fff;}.cls-3{fill:#2e3f51;}.cls-4{fill:#2b3d50;}</style></defs><polygon class="cls-1" points="0 220.9 0 1.5 158.7 1.5 158.7 27.4 29.1 27.4 29.1 94.6 150.5 94.6 150.5 120.3 29.1 120.3 29.1 195 163.8 195 163.8 220.9 0 220.9"/><path class="cls-2" d="M333.8,151.9V53l-68.7,98.9Zm0,77.2V176.6H238.6V151.9L338.7,9.7h22V151.9h29.6v24.7H360.7v52.5Z" transform="translate(0 -7.5)"/><path class="cls-1" d="M607.4,9h29V135.8q0,33.15-7.5,52.5c-5,13-14,23.5-27,31.6s-30.1,12.2-51.3,12.2-37.4-3.5-50.4-10.6a60.45,60.45,0,0,1-28-30.8c-5.6-13.4-8.4-31.8-8.4-55V8.9h29V135.5c0,19.1,1.8,33.1,5.3,42.1a40.13,40.13,0,0,0,18.3,20.9c8.6,4.9,19.2,7.3,31.7,7.3,21.3,0,36.6-4.8,45.6-14.5s13.6-28.3,13.6-55.8V8.9Z" transform="translate(0 -7.5)"/><rect class="cls-3" x="192.6" width="15.8" height="220.6"/><rect class="cls-4" x="418.2" width="15.8" height="220.6"/><path class="cls-2" d="M693,28.7a20.15,20.15,0,0,1-2.8,10.5,21.06,21.06,0,0,1-7.7,7.7,21.46,21.46,0,0,1-21.2,0,21.34,21.34,0,0,1-7.8-7.7,20.76,20.76,0,0,1-2.8-10.6A20.76,20.76,0,0,1,653.5,18a21.06,21.06,0,0,1,7.7-7.7,21.46,21.46,0,0,1,21.2,0,21.06,21.06,0,0,1,7.7,7.7,20.76,20.76,0,0,1,2.8,10.6Zm-4.4,0a15.92,15.92,0,0,0-4.9-11.9,16,16,0,0,0-11.8-4.9A16.23,16.23,0,0,0,660,16.8a16,16,0,0,0-4.9,11.8c0,4.6.7,5.8,2.2,8.3a16.24,16.24,0,0,0,6.1,6.1,17,17,0,0,0,23-6.1A16,16,0,0,0,688.6,28.7ZM663.1,17.1h10.3a11.83,11.83,0,0,1,4.8.7,5.32,5.32,0,0,1,2.4,2.3,7.24,7.24,0,0,1,.9,3.7,6.12,6.12,0,0,1-.6,3,6.39,6.39,0,0,1-2.1,2.3,4.41,4.41,0,0,1,1.7,1.6,9.45,9.45,0,0,1,.6,3.2,38.26,38.26,0,0,0,.4,5,2,2,0,0,0,1,1.3h-5.8a7.07,7.07,0,0,1-.5-1.6c0-.4-.1-1.2-.1-2.2a20.39,20.39,0,0,0-.3-3.8,2.44,2.44,0,0,0-.9-1.1,6,6,0,0,0-2.5-.4h-4.1v9h-5.1V16.9Zm5,4.5v5.5h4.3a5.38,5.38,0,0,0,3.3-.7,2.71,2.71,0,0,0,.8-2.1,2.71,2.71,0,0,0-.8-2.1,5.73,5.73,0,0,0-3.2-.6h-4.4Z" transform="translate(0 -7.5)"/></svg>