<svg width="24" height="24" viewBox="0 0 24 24" fill="none" xmlns="http://www.w3.org/2000/svg">
<rect width="24" height="24" rx="12" fill="#0C223D"/>
<g clip-path="url(#clip0_2816_3402)">
<path d="M11.86 10.4098L11.88 10.7598L11.52 10.7198C10.2 10.5498 9.05 9.97978 8.08 9.02978L7.6 8.54978L7.48 8.89978C7.22 9.67978 7.38 10.5098 7.93 11.0598C8.21 11.3698 8.15 11.4098 7.65 11.2298C7.48 11.1698 7.33 11.1298 7.31 11.1498C7.26 11.1998 7.43 11.8698 7.57 12.1298C7.76 12.4898 8.14 12.8498 8.56 13.0598L8.92 13.2298L8.5 13.2398C8.09 13.2398 8.08 13.2398 8.12 13.3998C8.26 13.8698 8.84 14.3698 9.47 14.5898L9.92 14.7498L9.53 14.9798C8.95 15.3198 8.27 15.5098 7.59 15.5198C7.27 15.5298 7 15.5598 7 15.5798C7 15.6498 7.88 16.0598 8.4 16.2198C9.93 16.6998 11.76 16.4898 13.14 15.6798C14.11 15.0998 15.09 13.9598 15.54 12.8498C15.79 12.2598 16.03 11.1798 16.03 10.6598C16.03 10.3298 16.05 10.2798 16.46 9.87978C16.7 9.64978 16.92 9.38978 16.96 9.31978C17.04 9.17978 17.03 9.17978 16.66 9.29978C16.05 9.51978 15.96 9.48978 16.26 9.16978C16.49 8.92978 16.76 8.50978 16.76 8.38978C16.76 8.35978 16.65 8.39978 16.52 8.46978C16.39 8.53978 16.1 8.64978 15.89 8.70978L15.5 8.83978L15.14 8.59978C14.95 8.46978 14.67 8.31978 14.53 8.27978C14.16 8.16978 13.6 8.18978 13.27 8.30978C12.36 8.62978 11.79 9.47978 11.86 10.4098Z" fill="#FF3C5F"/>
</g>
<defs>
<clipPath id="clip0_2816_3402">
<rect width="10" height="10" fill="white" transform="translate(7 7)"/>
</clipPath>
</defs>
</svg>
