<svg width="35" height="35" viewBox="0 0 35 35" fill="none" xmlns="http://www.w3.org/2000/svg">
<path d="M18.9414 0.242188V3.72669C26.5215 4.65819 31.8915 11.5409 30.9591 19.1137C30.1648 25.3927 25.2265 30.378 18.9414 31.1197V34.5697C28.4381 33.621 35.3448 25.203 34.3952 15.7155C33.6182 7.52169 27.1086 1.05294 18.9414 0.242188ZM15.488 0.293937C12.121 0.621688 8.90933 1.91544 6.28477 4.08894L8.75393 6.64194C10.6878 5.08944 13.0188 4.08894 15.488 3.74394V0.293937ZM3.85015 6.52119C1.67453 9.14319 0.379516 12.3344 0.0341797 15.7155H3.48755C3.81561 13.2659 4.78256 10.9372 6.3193 8.98794L3.85015 6.52119ZM0.0514465 19.1655C0.396783 22.5465 1.72633 25.7377 3.86741 28.3597L6.3193 25.893C4.79982 23.9437 3.81561 21.615 3.50481 19.1655H0.0514465ZM8.75393 28.4287L6.28477 30.792C8.89206 32.9655 12.1037 34.3282 15.488 34.6905V31.2405C13.0361 30.93 10.7051 29.9467 8.75393 28.4287ZM21.6868 10.5404L17.2147 15.0082L12.7426 10.5404L10.3079 12.9727L14.78 17.4405L10.3079 21.9082L12.7426 24.3405L17.2147 19.8727L21.6868 24.3405L24.1214 21.9082L19.6493 17.4405L24.1214 12.9727L21.6868 10.5404Z" fill="#FF3C5F"/>
</svg>
