<svg width="11" height="12" viewBox="0 0 11 12" fill="none" xmlns="http://www.w3.org/2000/svg">
<path d="M9.29159 10.8751H3.33325V3.29175H9.29159V10.8751ZM9.29159 2.20841H3.33325C3.04593 2.20841 2.77038 2.32255 2.56722 2.52572C2.36406 2.72888 2.24992 3.00443 2.24992 3.29175V10.8751C2.24992 11.1624 2.36406 11.4379 2.56722 11.6411C2.77038 11.8443 3.04593 11.9584 3.33325 11.9584H9.29159C9.5789 11.9584 9.85445 11.8443 10.0576 11.6411C10.2608 11.4379 10.3749 11.1624 10.3749 10.8751V3.29175C10.3749 3.00443 10.2608 2.72888 10.0576 2.52572C9.85445 2.32255 9.5789 2.20841 9.29159 2.20841ZM7.66659 0.041748H1.16659C0.879267 0.041748 0.603717 0.155885 0.400553 0.359049C0.197388 0.562213 0.083252 0.837763 0.083252 1.12508V8.70841H1.16659V1.12508H7.66659V0.041748Z" fill="#90A0B7"/>
</svg>
