<?xml version="1.0" encoding="UTF-8"?>
<svg id="Layer_1" xmlns="http://www.w3.org/2000/svg" version="1.1" viewBox="0 0 100.3 127.6">
  <!-- Generator: Adobe Illustrator 30.2.1, SVG Export Plug-In . SVG Version: 2.1.1 Build 1)  -->
  <defs>
    <style>
      .st0 {
        fill: #fff;
      }

      .st1 {
        fill: #f7941d;
      }
    </style>
  </defs>
  <rect class="st1" x="43" y="33.6" width="12.3" height="57.2" transform="translate(111.4 13) rotate(90)"/>
  <path class="st0" d="M96,17.9c-9.7-.1-19.2-1.1-28.5-4.1-5.7-1.8-10.9-4.4-15.4-8.4-.6-.6-2-1.9-2-1.9v.5-.2s0-.3,0-.3h0s0,0,0,0c0,0-1.4,1.3-2,1.9-4.5,4-9.7,6.6-15.4,8.4-9.3,3-18.8,4-28.5,4.1C2.4,17.9,0,17.5,0,17.5v23.6c.2,5.6.4,11.6.8,17.7.5,10.1,2.3,20,6.1,29.4.9,2.3,2,4.5,3.2,6.6,6.9,12.2,17.7,20.4,31,25.8,5.7,2.3,9.2,3.5,9.2,3.5,0,0,3.1-1.2,8.8-3.5,13.3-5.4,24.1-13.6,31-25.8,1.2-2.1,2.3-4.3,3.2-6.6,3.8-9.4,5.6-19.3,6.1-29.4.4-6.1.6-12.1.8-17.7v-23.6s-2.4.4-4.2.4ZM95.2,41v1.1c-.2,5.3-.4,10.8-.8,16.4h0s0,0,0,0c-.5,10.4-2.4,19.5-5.7,27.8h0s0,0,0,0c-.7,1.9-1.7,3.8-2.9,6-6,10.5-15.3,18.3-28.5,23.6-.6.2-5.1,1.6-7.1,2.3,0,0,0,0,0,0h0s0,0,0,0c0,0,0,0,0,0v-43.9c0,0-29.5,0-29.5,0h-6v-24.3h35.6V10.7l4.9,3.1c3.2,1.9,6.8,3.5,10.9,4.8,8.6,2.8,17.9,4.2,29.2,4.3v18.1Z"/>
</svg>